<?xml version="1.0" encoding="utf-8"?>
<!-- Generator: Adobe Illustrator 22.1.0, SVG Export Plug-In . SVG Version: 6.00 Build 0)  -->
<svg version="1.1" id="图层_1" xmlns="http://www.w3.org/2000/svg" xmlns:xlink="http://www.w3.org/1999/xlink" x="0px" y="0px"
	 viewBox="0 0 312.7 312.3" style="enable-background:new 0 0 312.7 312.3;" xml:space="preserve">
<g>
	<g>
		<path d="M76.8,76.1c-21,21-32.5,48.8-32.5,78.5c0,61.2,49.8,110.9,111,110.9c61.2,0,111-49.8,111-110.9
			c0-61.2-49.8-110.9-111-110.9C125.6,43.6,97.7,55.1,76.8,76.1z M49.5,154.5c0-28.2,11-54.8,31-74.8c20-20,46.5-31,74.8-31
			c58.3,0,105.7,47.4,105.7,105.7c0,58.3-47.4,105.7-105.7,105.7C96.9,260.2,49.5,212.8,49.5,154.5z"/>
	</g>
	<g>
		<path d="M2.2,155.1c0,85,69.1,154.1,154.1,154.1c85,0,154.1-69.1,154.1-154.1C310.4,70.1,241.3,1,156.3,1
			C71.4,1,2.2,70.1,2.2,155.1z M10,155.1C10,74.5,75.7,8.8,156.3,8.8c80.7,0,146.3,65.6,146.3,146.3c0,80.7-65.6,146.3-146.3,146.3
			C75.7,301.4,10,235.8,10,155.1z"/>
	</g>
	<g>
		<g>
			<path d="M44.1,240l-6.3-9.5c-1-1.6-1.5-3.1-1.2-4.4c0.2-1.4,0.9-2.4,2.1-3.2c1-0.6,2-0.9,3.1-0.7c0.7,0.1,1.5,0.4,2.3,1
				c-0.5-1.4-0.6-2.6-0.2-3.6c0.3-1,1-1.9,2.1-2.6c0.8-0.6,1.7-0.9,2.7-0.9c1-0.1,1.8,0.1,2.7,0.5c0.5,0.3,1.1,0.8,1.8,1.6
				c0.9,1,1.5,1.8,1.7,2.1l5.8,8.8L44.1,240z M47.2,230.6l-1.4-2.2c-0.5-0.8-1-1.3-1.5-1.4c-0.5-0.1-1,0-1.5,0.3
				c-0.5,0.3-0.8,0.7-0.8,1.2c-0.1,0.5,0.1,1.1,0.7,1.9l1.5,2.3L47.2,230.6z M53.7,226.3l-1.7-2.6c-0.6-0.9-1.1-1.4-1.7-1.6
				c-0.5-0.2-1.1-0.1-1.6,0.3c-0.5,0.3-0.8,0.8-0.8,1.3c-0.1,0.6,0.2,1.3,0.8,2.2l1.7,2.6L53.7,226.3z"/>
			<path d="M29.7,216l-6.1-15.1l3.9-1.6l3.8,9.5l2.9-1.2l-3.6-8.8l3.7-1.5l3.6,8.8l3.6-1.5l-4-9.7l4.1-1.7l6.3,15.4L29.7,216z"/>
			<path d="M21,191.7l-1.4-5.9l19.2-4.6l1.4,5.9L21,191.7z"/>
			<path d="M16.9,167.7l-0.6-6.1l10.7-1c2.2-0.2,4-0.2,5.2,0.1c1.2,0.3,2.3,1,3.2,2.1c0.9,1.1,1.5,2.6,1.6,4.5
				c0.2,2,0.1,3.5-0.4,4.7c-0.4,1.1-1.1,2.1-2.1,2.8c-1,0.7-2.2,1.2-3.7,1.4l-1.3-5.7c0.9-0.1,1.5-0.2,1.9-0.4
				c0.4-0.2,0.7-0.5,1-0.8c0.1-0.2,0.2-0.6,0.2-1c-0.1-0.7-0.4-1.1-0.9-1.4c-0.5-0.3-1.4-0.4-2.6-0.2L16.9,167.7z"/>
			<path d="M16.4,151.7l0.3-6.1l19.7,1l-0.3,6.1L16.4,151.7z"/>
			<path d="M17.6,135.2l1.2-5.6l12.3-4.9l-10.6-2.4l1.2-5.6l19.3,4.3l-1.2,5.6l-12.2,4.9l10.6,2.3l-1.2,5.6L17.6,135.2z"/>
			<path d="M40.8,102.6l-3.7-1.7l3.9-8.5l7.6,3.5c0.4,2.1,0.5,3.9,0.3,5.4c-0.2,1.4-0.7,3-1.5,4.7c-1,2.1-2.1,3.7-3.5,4.7
				c-1.3,1-2.9,1.5-4.7,1.6c-1.8,0.1-3.6-0.3-5.5-1.2c-1.9-0.9-3.5-2.1-4.5-3.5c-1.1-1.5-1.6-3.2-1.7-5.1c0-1.5,0.4-3.2,1.4-5.3
				c0.9-2,1.8-3.4,2.6-4.2c0.8-0.8,1.7-1.4,2.8-1.7c1.1-0.3,2.2-0.4,3.5-0.2L36.5,97c-0.8-0.1-1.5,0-2.1,0.4c-0.6,0.4-1.1,1-1.5,1.8
				c-0.6,1.2-0.6,2.4-0.1,3.5c0.5,1.1,1.7,2.1,3.5,2.9c1.9,0.9,3.5,1.2,4.6,0.8c1.2-0.3,2.1-1.2,2.6-2.5c0.3-0.6,0.5-1.2,0.6-1.9
				c0.1-0.7,0.1-1.4,0-2.4l-1.7-0.8L40.8,102.6z"/>
			<path d="M47,68.3l3.9-4.2l13,1.9l-8-7.4l3.9-4.2l14.5,13.3l-3.9,4.2l-13-1.9l8,7.3l-3.9,4.2L47,68.3z"/>
			<path d="M73.1,55.7c-1.8-2.6-2.5-5.2-2.1-7.7c0.4-2.5,2-4.7,4.6-6.5c2.7-1.9,5.3-2.6,7.7-2.2c2.5,0.4,4.6,1.9,6.4,4.5
				c1.3,1.9,2.1,3.7,2.3,5.3c0.2,1.6-0.1,3.2-0.8,4.7c-0.7,1.5-2,2.9-3.8,4.2c-1.8,1.3-3.5,2-5.1,2.3c-1.6,0.3-3.2,0-4.8-0.7
				C75.9,58.9,74.5,57.6,73.1,55.7z M78.2,52.2c1.1,1.6,2.3,2.6,3.4,2.9c1.1,0.3,2.2,0.1,3.2-0.7c1.1-0.8,1.7-1.7,1.8-2.8
				c0.1-1.1-0.5-2.6-1.7-4.4c-1.1-1.5-2.2-2.4-3.2-2.7c-1.1-0.3-2.2,0-3.2,0.7c-1,0.7-1.6,1.6-1.7,2.8C76.5,49.2,77,50.6,78.2,52.2z
				"/>
			<path d="M101.1,49.2L93.4,31l9.4-4c1.7-0.7,3.1-1.2,4.2-1.2c1-0.1,2,0.1,2.9,0.7c0.9,0.6,1.6,1.4,2.1,2.6c0.4,1,0.6,2,0.5,2.9
				c-0.1,0.9-0.5,1.7-1,2.5c-0.3,0.5-0.9,1-1.6,1.5c0.8-0.1,1.3,0,1.7,0.1c0.3,0.1,0.7,0.3,1.3,0.6c0.6,0.3,1,0.6,1.3,0.8l4.9,4.1
				l-6.3,2.7l-5.3-4.3c-0.7-0.6-1.2-0.9-1.6-1c-0.5-0.1-1.1-0.1-1.6,0.2l-0.5,0.2l3.1,7.4L101.1,49.2z M102.1,36l2.4-1
				c0.3-0.1,0.7-0.4,1.4-0.9c0.4-0.2,0.6-0.5,0.7-1c0.1-0.4,0.1-0.8-0.1-1.2c-0.2-0.6-0.6-1-1.1-1.1c-0.5-0.2-1.3,0-2.3,0.4l-2.5,1
				L102.1,36z"/>
			<path d="M119.8,20.8l7.9-1.5l5.2,11.2l0.9-12.4l7.9-1.5l3.6,19.4l-4.9,0.9l-2.7-14.8l-1.1,15.5l-4.4,0.8l-6.5-14.1l2.7,14.8
				l-4.9,0.9L119.8,20.8z"/>
			<path d="M164.2,33.2l-6.9-0.3l-1.1,3.2l-6.2-0.2l8.2-19.4l6.7,0.3l6.6,20l-6.4-0.3L164.2,33.2z M163.1,28.9l-1.9-7.2l-2.5,7
				L163.1,28.9z"/>
			<path d="M180.6,18.6l5.9,1.4l-3.4,14.5l9.3,2.2l-1.1,4.7L176,37.7L180.6,18.6z"/>
			<path d="M228.6,37l5.3,3.1L228,50.2c-0.6,1-1.3,1.9-2.1,2.6c-0.8,0.7-1.8,1.2-2.8,1.5c-1.1,0.3-2,0.3-2.9,0.2
				c-1.2-0.2-2.6-0.7-4-1.6c-0.8-0.5-1.7-1.1-2.6-1.7c-0.9-0.7-1.6-1.4-2.1-2.1c-0.5-0.7-0.8-1.6-1-2.5c-0.2-0.9-0.2-1.8,0-2.6
				c0.3-1.3,0.7-2.3,1.2-3.2l5.9-10.2l5.3,3l-6,10.4c-0.5,0.9-0.7,1.8-0.5,2.6c0.2,0.8,0.8,1.5,1.7,2c0.9,0.5,1.8,0.7,2.6,0.5
				c0.8-0.2,1.5-0.8,2.1-1.8L228.6,37z"/>
			<path d="M242.8,46.6l4.2,3.8l-1.8,13.1l7.3-8.1l4.2,3.9l-13.3,14.6l-4.3-3.9l1.8-13l-7.3,8l-4.2-3.9L242.8,46.6z"/>
			<path d="M263.4,67.1l3.8,4.8l-15.5,12.2l-3.8-4.8L263.4,67.1z"/>
			<path d="M272.3,78.5l3.1,5.6l-10.2,10.8l14.5-3.1l3,5.4l-20.8,3.3l-3.2-5.8L272.3,78.5z"/>
			<path d="M285.9,105.2l5.1,15.5l-4,1.3l-3.2-9.7l-3,1l3,9l-3.8,1.3l-3-9l-3.7,1.2l3.3,10l-4.2,1.4l-5.2-15.8L285.9,105.2z"/>
			<path d="M273.7,133.1l19.6-2.4l1.2,10.1c0.2,1.9,0.2,3.3,0,4.3c-0.2,1-0.7,1.9-1.5,2.6c-0.8,0.7-1.8,1.1-3.1,1.3
				c-1.1,0.1-2,0-2.9-0.4c-0.9-0.4-1.6-0.9-2.2-1.7c-0.4-0.5-0.7-1.2-1-2c-0.2,0.8-0.3,1.3-0.5,1.7c-0.1,0.2-0.4,0.6-0.9,1.1
				c-0.5,0.5-0.9,0.8-1.1,1l-5.3,3.6l-0.8-6.8l5.6-3.9c0.7-0.5,1.2-0.9,1.4-1.3c0.2-0.5,0.3-1,0.3-1.5l-0.1-0.5l-7.9,1L273.7,133.1z
				 M286.1,137.8l0.3,2.6c0,0.3,0.2,0.8,0.5,1.6c0.1,0.4,0.4,0.7,0.7,0.9c0.4,0.2,0.8,0.3,1.2,0.2c0.6-0.1,1.1-0.3,1.4-0.8
				c0.3-0.4,0.4-1.2,0.2-2.3l-0.3-2.6L286.1,137.8z"/>
			<path d="M282.5,156.6l-0.1,5.8c-0.9,0.1-1.7,0.3-2.2,0.6c-0.8,0.6-1.3,1.4-1.4,2.6c-0.1,0.9,0.1,1.6,0.5,2.1
				c0.4,0.5,0.8,0.8,1.4,0.8c0.5,0,1-0.2,1.4-0.6c0.4-0.4,0.9-1.4,1.4-3c0.8-2.6,1.7-4.5,2.8-5.5c1.1-1.1,2.4-1.5,3.9-1.4
				c1,0.1,2,0.4,2.8,1.1c0.9,0.7,1.5,1.6,1.9,2.8c0.4,1.2,0.6,2.8,0.4,4.9c-0.2,2.5-0.8,4.4-1.8,5.6c-1,1.3-2.6,1.9-4.6,2l0.1-5.8
				c0.9-0.1,1.6-0.4,2-0.8c0.4-0.4,0.7-1.1,0.8-2c0.1-0.7-0.1-1.2-0.3-1.6c-0.3-0.4-0.6-0.6-1-0.6c-0.3,0-0.6,0.1-0.9,0.4
				c-0.3,0.3-0.6,0.9-0.9,2c-0.8,2.6-1.5,4.5-2.2,5.6c-0.7,1.1-1.5,1.9-2.4,2.4c-0.9,0.4-1.9,0.6-3,0.5c-1.3-0.1-2.4-0.5-3.4-1.3
				c-1-0.8-1.7-1.8-2.2-3.1c-0.5-1.3-0.6-2.9-0.5-4.8c0.3-3.4,1.1-5.6,2.5-6.8C278.8,157.2,280.4,156.6,282.5,156.6z"/>
			<path d="M292.4,184.3l-1.4,5.9l-19.2-4.5l1.4-5.9L292.4,184.3z"/>
			<path d="M288.9,198.8l-6.9,17.2l-4.5-1.8l2.3-5.8l-13.8-5.5l2.2-5.7l13.8,5.5l2.3-5.8L288.9,198.8z"/>
			<path d="M278.8,222.6l-3.7,5.7l-7.8-0.3l3.4,7l-3.6,5.7l-5.5-12.7l-6.9-4.5l3.3-5.1l6.9,4.5L278.8,222.6z"/>
		</g>
		<g>
			<path d="M128.1,270.6c-1,6.8-2,13.6-3,20.3c-2.1-0.3-4.2-0.6-6.2-1c0.8-4.4,1.6-8.8,2.3-13.3c-1.1,0.5-2.1,0.9-3.1,1.2
				c-1,0.2-2.2,0.4-3.6,0.5c0.3-1.5,0.6-3,0.9-4.5c2.1-0.2,3.7-0.7,4.9-1.3c1.2-0.6,2.2-1.6,3-2.7
				C125.1,270.1,126.6,270.3,128.1,270.6z"/>
			<path d="M135.8,287.6c2,0,4.1-0.1,6.1-0.2c0.1,0.8,0.3,1.4,0.7,1.7c0.3,0.3,0.8,0.5,1.4,0.6c1,0.1,1.8-0.4,2.4-1.2
				c0.4-0.7,0.8-2.1,1.1-4.2c-0.7,0.6-1.5,1.1-2.3,1.4c-0.8,0.3-1.7,0.4-2.6,0.3c-1.9-0.1-3.5-0.9-4.7-2.3c-1.2-1.4-1.7-3.1-1.5-5
				c0.1-1.3,0.6-2.5,1.3-3.6c0.7-1,1.7-1.8,2.9-2.2c1.2-0.5,2.6-0.7,4.3-0.5c2,0.1,3.6,0.5,4.8,1.3c1.2,0.7,2.2,1.9,2.9,3.4
				c0.7,1.5,1.1,3.5,1,6c-0.1,3.6-0.9,6.3-2.7,8c-1.7,1.7-4.1,2.4-7.2,2.2c-1.8-0.1-3.2-0.4-4.2-0.8c-1-0.4-1.8-1.1-2.4-1.9
				C136.5,289.7,136,288.8,135.8,287.6z M147.4,279.5c0.1-1.1-0.2-2-0.7-2.6c-0.5-0.7-1.2-1-2-1c-0.8,0-1.4,0.2-1.9,0.7
				c-0.5,0.5-0.9,1.3-0.9,2.5c-0.1,1.1,0.1,2,0.6,2.7c0.5,0.6,1.2,1,2,1c0.8,0,1.5-0.2,2.1-0.8C147,281.3,147.4,280.5,147.4,279.5z"
				/>
			<path d="M159,283c0-3.8,0.7-6.5,2-8.1c1.4-1.6,3.5-2.4,6.3-2.5c1.4-0.1,2.5,0,3.4,0.3c0.9,0.3,1.6,0.6,2.2,1.1
				c0.6,0.5,1.1,1,1.5,1.6c0.4,0.6,0.7,1.2,1,2c0.5,1.5,0.9,3,1,4.7c0.4,3.6,0,6.4-1.3,8.2c-1.2,1.8-3.5,2.8-6.9,3
				c-1.9,0.1-3.4-0.1-4.6-0.6c-1.2-0.5-2.1-1.3-2.9-2.3c-0.5-0.7-1-1.7-1.3-3C159.1,286,159,284.6,159,283z M164.9,282.9
				c0.1,2.6,0.4,4.3,0.9,5.2c0.5,0.9,1.3,1.4,2.2,1.3c0.6,0,1.1-0.3,1.6-0.7c0.4-0.4,0.7-1.1,0.9-2c0.1-0.9,0.2-2.2,0-4
				c-0.2-2.7-0.5-4.5-1-5.4c-0.5-0.9-1.3-1.3-2.2-1.3c-0.9,0.1-1.6,0.5-2,1.5C164.9,278.6,164.8,280.3,164.9,282.9z"/>
			<path d="M201.1,288.7c-6.1,1.3-12.3,2.3-18.5,3c0-1.7,0.5-3.3,1.3-4.9c0.9-1.6,2.6-3.6,5.1-6c1.5-1.5,2.5-2.6,2.8-3.3
				c0.4-0.7,0.5-1.3,0.4-1.9c-0.1-0.6-0.4-1.1-1-1.4c-0.5-0.3-1.1-0.5-1.9-0.4c-0.7,0.1-1.3,0.5-1.7,1c-0.4,0.5-0.6,1.4-0.6,2.5
				c-2,0.1-3.9,0.3-5.9,0.3c0-1.6,0.3-2.9,0.8-3.8c0.5-1,1.2-1.7,2.2-2.4c1-0.6,2.5-1.1,4.3-1.4c2-0.3,3.5-0.4,4.7-0.1
				c1.2,0.2,2.2,0.8,3,1.5c0.8,0.8,1.3,1.7,1.6,2.9c0.2,1.2,0.1,2.5-0.4,3.7c-0.5,1.3-1.7,2.7-3.4,4.4c-1,1-1.8,1.7-2.1,2
				c-0.4,0.4-0.8,0.9-1.2,1.5c3.1-0.5,6.3-1.1,9.4-1.7C200.5,285.7,200.8,287.2,201.1,288.7z"/>
		</g>
		<g>
			<path d="M176.7,129.2l-4.2,0.8c-1.1,0.2-1.3,0.8-1.3,1.2l0,2.2c0,0.7,0.1,1.1,0.5,1.3c0.2,0.2,0.5,0.1,0.7,0.1l3.5-0.8
				c0.8-0.3,1-0.9,1-1.1l0-1.2c0-0.4-0.2-0.6-0.3-0.7c-0.4-0.2-0.8-0.1-0.9-0.1l-2.6,0.5c-0.2,0-0.3,0.2-0.3,0.4v1.2
				c0,0.1,0.1,0.2,0.1,0.3c0.1,0.1,0.2,0.1,0.3,0.1l1.7-0.4c0.2-0.1,0.3-0.3,0.3-0.5c-0.1-0.2-0.3-0.3-0.4-0.3c0,0-0.8,0.2-1.2,0.3
				c0-0.2,0-0.2,0-0.4c0.5-0.1,2.3-0.4,2.3-0.4c0.1,0,0.2,0,0.2,0l0,0c0,0,0,0.1,0,0.1l0,1.2c0,0,0,0.2-0.5,0.4l-3.6,0.8
				c-0.1,0-0.2-0.1-0.2-0.7v-2.2c0-0.1,0.1-0.3,0.7-0.4l4.3-0.8c0.1,0,0.2-0.1,0.3,0c0.1,0.1,0.2,0.3,0.2,0.7v3c0,0,0,0,0,0
				c0,0.1-0.1,0.4-0.7,0.6c0,0-4.4,1-4.5,1c-0.1,0-0.5,0-0.7,0.3c-0.2,0.2-0.4,0.4-0.3,0.9v3.7c0,0,0,0.5,0.3,0.8
				c0.3,0.2,0.6,0.3,1.1,0.2l4.4-1c0.3,0,1.1-0.3,1.1-1.2v-2.4c0-0.1,0-0.4-0.4-0.7c-0.3-0.2-0.7-0.3-1.2-0.2l-3.1,0.9
				c-0.3,0-0.9,0.3-0.9,1.1v1.1c0,0.1,0.1,0.5,0.4,0.7c0.3,0.2,0.6,0.2,1,0.1l2.4-0.6c0.2,0,0.3-0.2,0.3-0.4l-0.1-1.1
				c0-0.1-0.1-0.2-0.1-0.3c-0.1-0.1-0.2-0.1-0.3-0.1l-1.1,0.3c-0.2,0.1-0.3,0.3-0.2,0.5c0,0.2,0.3,0.3,0.5,0.3c0,0,0.3-0.1,0.6-0.2
				c0,0.2,0,0.2,0,0.4c-0.4,0.1-2,0.5-2,0.5c-0.4,0.1-0.4-0.1-0.5-0.2v-1.1c0-0.3,0.2-0.3,0.3-0.4l3.2-0.8c0.4-0.1,0.5,0,0.6,0.1
				c0.1,0.1,0.1,0.1,0.1,0.1v2.4c0,0.4-0.3,0.5-0.5,0.5l-4.5,1c-0.2,0-0.4,0-0.5,0c-0.1-0.1-0.1-0.2-0.1-0.2v-3.7
				c0-0.1,0-0.3,0.1-0.4c0.1-0.1,0.2-0.1,0.2-0.1c0,0,0.1,0,0.1,0l4.5-1c1.4-0.5,1.2-1.4,1.2-1.5v-2.9c0-0.6-0.2-1-0.5-1.3
				C177.3,129,176.8,129.2,176.7,129.2z M172.3,135.3C172.3,135.3,172.3,135.3,172.3,135.3C172.3,135.3,172.3,135.3,172.3,135.3z"/>
		</g>
		<g>
			<path d="M184.9,127.3l-4.2,0.8c-1.1,0.2-1.3,0.9-1.3,1.2l0,2.2c0,0.7,0.1,1.1,0.5,1.3c0.2,0.2,0.5,0.1,0.7,0.1l3.5-0.8
				c0.8-0.3,1-0.8,1-1.1l0-1.2c0-0.4-0.2-0.6-0.3-0.7c-0.4-0.2-0.8-0.1-0.9-0.1l-2.6,0.5c-0.2,0-0.3,0.2-0.3,0.4v1.2
				c0,0.1,0.1,0.2,0.1,0.3c0.1,0.1,0.2,0.1,0.3,0.1l1.7-0.4c0.2-0.1,0.3-0.2,0.3-0.4c-0.1-0.2-0.3-0.3-0.4-0.3c0,0-0.8,0.2-1.2,0.3
				c0-0.2,0-0.2,0-0.4c0.5-0.1,2.3-0.4,2.3-0.4c0.1,0,0.2,0,0.2,0l0,0c0,0,0,0.1,0,0.1l0,1.2c0,0,0,0.2-0.5,0.4l-3.6,0.8
				c-0.1,0-0.2-0.1-0.2-0.7v-2.2c0-0.1,0.1-0.3,0.7-0.4l4.2-0.8c0.1,0,0.2-0.1,0.3,0c0.1,0.1,0.2,0.3,0.2,0.7v3c0,0,0,0,0,0
				c0,0.1-0.1,0.4-0.7,0.7c0,0-4.4,1-4.5,1c-0.2,0-0.5,0-0.7,0.3c-0.2,0.1-0.3,0.4-0.3,0.9v3.7c0,0,0,0.5,0.3,0.8
				c0.2,0.3,0.6,0.3,1.1,0.2l4.4-1c0.3,0,1.1-0.3,1.1-1.2v-2.4c0-0.1,0-0.4-0.4-0.7c-0.3-0.2-0.7-0.3-1.2-0.2l-3.1,0.8
				c-0.3,0-0.9,0.3-0.9,1.1v1.1c0,0.1,0.1,0.4,0.4,0.7c0.2,0.2,0.6,0.2,1,0.2l2.3-0.6c0.2-0.1,0.3-0.2,0.3-0.4l-0.1-1.1
				c0-0.1-0.1-0.2-0.2-0.3c-0.1-0.1-0.2-0.1-0.3-0.1l-1.1,0.3c-0.2,0.1-0.3,0.3-0.3,0.5c0.1,0.2,0.3,0.3,0.5,0.3
				c0,0,0.3-0.1,0.6-0.2c0,0.2,0,0.2,0,0.4c-0.5,0.1-2,0.5-2,0.5c-0.4,0.1-0.5-0.1-0.5-0.2l0-1.1c0-0.3,0.2-0.4,0.3-0.4l3.1-0.9
				c0.4-0.1,0.5,0,0.6,0.1c0.1,0.1,0.1,0.1,0.1,0.1v2.4c0,0.4-0.4,0.5-0.5,0.5l-4.5,1c-0.2,0-0.4,0-0.4-0.1
				c-0.1-0.1-0.1-0.2-0.1-0.2v-3.7c0-0.1,0-0.3,0.1-0.4c0.1-0.1,0.2-0.1,0.2-0.1c0,0,0.1,0,0.1,0l4.5-1c1.4-0.5,1.3-1.4,1.2-1.5
				l0-2.9c0-0.6-0.2-1-0.5-1.3C185.4,127.2,184.9,127.3,184.9,127.3z M180.5,133.4C180.5,133.4,180.5,133.4,180.5,133.4
				C180.5,133.4,180.5,133.4,180.5,133.4z"/>
		</g>
		<g>
			<path d="M193,124.7l-4.2,1.3c-1.3,0.4-1.2,1.3-1.2,1.3v2.2c0,0.7,0.1,1.1,0.5,1.3c0.3,0.2,0.6,0.1,0.7,0l3.6-1.3
				c1-0.5,0.9-1.1,0.9-1.2l0-1.2c0-0.4-0.2-0.6-0.3-0.7c-0.4-0.2-0.8,0-0.9,0l-2.6,0.9c-0.2,0.1-0.2,0.2-0.2,0.4v1.2
				c0,0.1,0.1,0.2,0.2,0.3c0.1,0.1,0.2,0.1,0.3,0l1.7-0.7c0.2-0.1,0.3-0.3,0.2-0.5c-0.1-0.2-0.3-0.3-0.5-0.2c0,0-0.7,0.3-1.2,0.5
				c0-0.2,0-0.3,0-0.4c0.4-0.1,2.4-0.8,2.4-0.8c0,0,0.2-0.1,0.2-0.1s0,0.1,0,0.1l0,1.2c0,0,0,0.3-0.5,0.5l-3.6,1.3c0,0-0.1,0-0.1,0
				c0,0-0.1-0.1-0.1-0.5c0,0,0-2.3,0-2.3c0,0,0-0.4,0.7-0.6l4.3-1.4c0.1-0.1,0.2-0.1,0.3,0c0.1,0.1,0.2,0.2,0.2,0.6v3c0,0,0,0,0,0
				c0,0.1-0.1,0.5-0.8,0.8c0,0-4.5,1.6-4.5,1.6c-0.1,0-0.4,0.1-0.7,0.3c-0.1,0.2-0.3,0.4-0.3,0.9c0,0,0,0,0,0.1v3.7c0,0,0,0,0,0.1
				c0,0.1,0,0.5,0.4,0.8c0.3,0.2,0.7,0.2,1.1,0.1l4.4-1.7c0.3,0,1-0.4,1.1-1.3v-2.4c0-0.1,0-0.4-0.4-0.7c-0.3-0.2-0.7-0.2-1.3,0
				l-3.1,1.3c-0.3,0.1-0.9,0.4-0.9,1.2v1.1c0,0.1,0.1,0.4,0.4,0.7c0.3,0.2,0.6,0.2,1,0l2.3-0.9c0.2-0.1,0.2-0.2,0.2-0.4l-0.1-1.1
				c0-0.1-0.1-0.2-0.2-0.3c-0.1-0.1-0.2-0.1-0.3,0l-1.1,0.5c-0.2,0.1-0.3,0.3-0.2,0.5c0.1,0.2,0.3,0.3,0.5,0.2c0,0,0.3-0.1,0.6-0.3
				c0,0.2,0,0.2,0,0.3c-0.4,0.2-2.1,0.8-2.1,0.8c-0.2,0.1-0.3,0-0.4,0l0-0.1l0-1c0-0.3,0.3-0.4,0.4-0.5l3.1-1.3
				c0.4-0.1,0.6-0.1,0.6,0c0.1,0,0.1,0.1,0.1,0.1v2.4c0,0.5-0.5,0.6-0.5,0.6l-4.5,1.7c-0.2,0.1-0.4,0.1-0.4,0
				c-0.1,0-0.1-0.1-0.1-0.2v-3.7c0-0.5,0.2-0.5,0.4-0.5c0,0,0.1,0,0.1,0l4.5-1.7c1.4-0.7,1.2-1.5,1.2-1.6l0-3c0-0.6-0.2-1-0.5-1.2
				C193.5,124.5,193,124.7,193,124.7z"/>
		</g>
		<g>
			<path d="M178.3,155.4l-4.2,0.8c-1.1,0.2-1.3,0.9-1.3,1.2v2.2c0,0.6,0.1,1.1,0.4,1.3c0.3,0.2,0.5,0.1,0.7,0.1l3.5-0.8
				c0.8-0.3,1-0.8,1-1.1l0-1.2c0-0.4-0.2-0.6-0.3-0.7c-0.3-0.3-0.8-0.1-0.9-0.1l-2.6,0.5c-0.2,0-0.3,0.2-0.3,0.4v1.2
				c0,0.1,0,0.2,0.1,0.3c0.1,0.1,0.2,0.1,0.3,0.1l1.7-0.4c0.2-0.1,0.3-0.3,0.2-0.4c0-0.2-0.2-0.3-0.4-0.3c0,0-0.7,0.2-1.2,0.3
				c0-0.2,0-0.3,0-0.4c0.5-0.1,2.3-0.4,2.3-0.4c0.1,0,0.2,0,0.2,0l0,0c0,0,0,0.1,0,0.1l0,1.2c0,0,0,0.2-0.4,0.4l-3.6,0.8
				c-0.1,0-0.2-0.1-0.2-0.6v-2.2c0-0.1,0.2-0.3,0.7-0.4l4.3-0.8c0,0,0.2-0.1,0.3,0c0.1,0.1,0.2,0.3,0.2,0.7v3c0,0,0,0,0,0.1
				c0,0.1-0.1,0.4-0.7,0.6c0,0-4.4,1-4.4,1c-0.1,0-0.5,0-0.7,0.3c-0.2,0.1-0.3,0.4-0.3,0.9v3.7c0,0,0,0.5,0.3,0.8
				c0.3,0.2,0.6,0.3,1.1,0.2l4.4-1c0.3,0,1.1-0.3,1.1-1.2v-2.4c0-0.1,0-0.4-0.3-0.7c-0.3-0.2-0.7-0.3-1.2-0.2l-3.1,0.8
				c-0.3,0-1,0.3-1,1.1v1.1c0,0.1,0.1,0.5,0.4,0.7c0.3,0.2,0.6,0.2,1,0.1l2.4-0.6c0.2,0,0.3-0.2,0.3-0.4l-0.1-1.1
				c0-0.1-0.1-0.2-0.2-0.3c-0.1-0.1-0.2-0.1-0.3,0l-1.1,0.3c-0.2,0.1-0.3,0.3-0.3,0.5c0.1,0.2,0.3,0.3,0.5,0.3c0,0,0.3-0.1,0.6-0.2
				c0,0.2,0,0.2,0,0.4c-0.5,0.1-2,0.5-2,0.5c-0.4,0.1-0.4-0.1-0.5-0.2l0-1.1c0-0.3,0.2-0.3,0.3-0.3l3.1-0.8c0.4-0.1,0.5,0,0.6,0.1
				c0.1,0,0.1,0.1,0.1,0.1v2.3c0,0.4-0.3,0.5-0.5,0.5l-4.5,1.1c-0.2,0-0.4,0-0.5-0.1c-0.1-0.1-0.1-0.2-0.1-0.2v-3.7
				c0-0.1,0-0.3,0.1-0.4c0.1-0.1,0.2-0.1,0.2-0.1c0,0,0.1,0,0.1,0l4.5-1c1.4-0.5,1.2-1.4,1.2-1.5v-2.9c0-0.6-0.2-1.1-0.5-1.3
				C178.8,155.3,178.3,155.4,178.3,155.4z M173.9,161.6C173.9,161.6,173.9,161.6,173.9,161.6C173.9,161.6,173.9,161.6,173.9,161.6z"
				/>
		</g>
		<g>
			<path d="M186.4,153.7l-4.2,0.7c-1.1,0.2-1.3,0.9-1.3,1.2v2.2c0,0.7,0.1,1.1,0.4,1.3c0.3,0.2,0.5,0.1,0.7,0.1l3.5-0.8
				c0.8-0.3,1-0.8,1-1.1l0-1.2c0-0.4-0.2-0.6-0.3-0.7c-0.3-0.2-0.8-0.1-0.9-0.1l-2.6,0.5c-0.2,0-0.3,0.2-0.3,0.4v1.2
				c0,0.1,0.1,0.2,0.1,0.3c0.1,0.1,0.2,0.1,0.3,0.1l1.7-0.4c0.2-0.1,0.3-0.3,0.3-0.5c-0.1-0.2-0.2-0.3-0.5-0.3c0,0-0.7,0.2-1.2,0.3
				c0-0.2,0-0.3,0-0.4c0.5-0.1,2.3-0.4,2.3-0.4c0.1,0,0.2,0,0.2,0c0,0,0,0,0,0c0,0,0,0.1,0,0.1l0,1.2c0,0,0,0.2-0.4,0.4l-3.6,0.8
				c-0.1,0-0.2-0.1-0.2-0.7v-2.2c0-0.1,0.1-0.3,0.7-0.4l4.3-0.8c0,0,0.2-0.1,0.3,0c0.1,0.1,0.2,0.3,0.2,0.7v3c0,0,0,0,0,0
				c0,0.1-0.1,0.4-0.7,0.6c0,0-4.4,1-4.5,1c-0.2,0-0.5,0-0.8,0.3c-0.2,0.1-0.3,0.4-0.3,0.9v3.7c0,0,0,0.5,0.3,0.8
				c0.3,0.2,0.7,0.3,1.1,0.2l4.4-1c0.3,0,1.1-0.3,1.1-1.2V161c0-0.1,0-0.4-0.4-0.7c-0.3-0.2-0.7-0.3-1.2-0.2l-3.1,0.8
				c-0.3,0-0.9,0.3-0.9,1.1v1.1c0,0.1,0.1,0.4,0.4,0.7c0.2,0.2,0.6,0.2,1,0.2l2.3-0.6c0.2,0,0.3-0.2,0.3-0.4l-0.1-1.1
				c0-0.1-0.1-0.2-0.2-0.3c-0.1-0.1-0.2-0.1-0.3,0l-1.1,0.3c-0.2,0.1-0.3,0.3-0.2,0.5c0.1,0.2,0.2,0.3,0.5,0.2c0,0,0.3-0.1,0.6-0.2
				c0,0.2,0,0.2,0,0.4c-0.5,0.1-2,0.5-2,0.5c-0.4,0.1-0.4-0.1-0.5-0.2V162c0-0.3,0.2-0.3,0.4-0.4l3.1-0.8c0.4-0.1,0.5,0,0.6,0.1
				c0.1,0.1,0.1,0.1,0.1,0.1v2.4c0,0.4-0.3,0.5-0.5,0.5l-4.5,1c-0.2,0-0.4,0-0.5,0c-0.1-0.1-0.1-0.2-0.1-0.2v-3.7
				c0-0.1,0-0.3,0.1-0.4c0.1-0.1,0.2-0.1,0.2-0.1c0.1,0,0.1,0,0.1,0l4.5-1c1.4-0.5,1.3-1.4,1.3-1.5l0-2.9c0-0.6-0.2-1-0.5-1.3
				C187,153.5,186.5,153.6,186.4,153.7z M182,159.8C182,159.8,182,159.8,182,159.8C182,159.8,182,159.8,182,159.8z"/>
		</g>
		<g>
			<path d="M194.5,151.2l-4.2,1.3c-1.3,0.4-1.2,1.3-1.2,1.3v2.2c0,0.7,0.1,1.1,0.4,1.3c0.3,0.2,0.6,0.1,0.8,0l3.5-1.3
				c1-0.5,1-1.1,1-1.2l0-1.2c0-0.4-0.2-0.6-0.3-0.7c-0.4-0.2-0.8,0-0.9,0l-2.6,0.9c-0.2,0.1-0.2,0.2-0.2,0.4v1.2
				c0,0.1,0.1,0.2,0.1,0.3c0.1,0.1,0.2,0.1,0.3,0l1.7-0.7c0.2-0.1,0.3-0.3,0.2-0.5c-0.1-0.2-0.3-0.3-0.5-0.2c0,0-0.7,0.3-1.2,0.5
				c0-0.2,0-0.2,0-0.4c0.4-0.1,2.4-0.8,2.4-0.8c0,0,0.2-0.1,0.2-0.1l0,0.1l0,1.2c0,0,0,0.2-0.5,0.5l-3.6,1.3c0,0-0.1,0-0.1,0
				c0,0-0.1-0.1-0.1-0.5c0,0,0-2.3,0-2.3c0-0.1,0-0.4,0.7-0.6l4.3-1.4c0.1,0,0.3-0.1,0.3,0c0.1,0.1,0.1,0.2,0.1,0.6v3c0,0,0,0,0,0
				c0,0.1,0,0.5-0.7,0.8c0,0-4.5,1.7-4.5,1.7c-0.1,0-0.4,0.1-0.7,0.3c-0.1,0.2-0.3,0.4-0.3,0.9c0,0,0,0.1,0,0.1v3.7c0,0,0,0,0,0
				c0,0.1,0,0.5,0.3,0.7c0.3,0.2,0.7,0.3,1.2,0.1l4.4-1.7c0.3-0.1,1-0.4,1.1-1.3v-2.4c0-0.1,0-0.4-0.4-0.7c-0.3-0.2-0.7-0.2-1.3-0.1
				l-3.1,1.3c-0.3,0.1-0.9,0.4-0.9,1.2v1.1c0,0.1,0.1,0.4,0.4,0.6c0.3,0.2,0.6,0.2,1,0l2.3-0.9c0.1-0.1,0.2-0.2,0.2-0.4l-0.1-1.1
				c0-0.1-0.1-0.2-0.2-0.3c-0.1-0.1-0.2-0.1-0.3,0l-1.1,0.4c-0.2,0.1-0.3,0.3-0.2,0.5c0.1,0.2,0.3,0.3,0.5,0.2c0,0,0.3-0.1,0.6-0.2
				c0,0.2,0,0.2,0,0.3c-0.4,0.2-2.1,0.8-2.1,0.8c-0.2,0.1-0.4,0.1-0.4,0l0-0.1v-1c0-0.4,0.3-0.5,0.4-0.5l3.1-1.3
				c0.4-0.1,0.5-0.1,0.6,0c0,0,0,0.1,0,0.1v2.4c0,0.5-0.4,0.6-0.5,0.6l-4.5,1.7c-0.2,0.1-0.4,0.1-0.4,0c0,0-0.1-0.1-0.1-0.2v-3.7
				c0-0.5,0.2-0.5,0.3-0.5c0,0,0.1,0,0.1,0l4.5-1.7c1.4-0.6,1.2-1.6,1.2-1.6v-2.9c0-0.6-0.2-1-0.5-1.2
				C195.1,150.9,194.6,151.1,194.5,151.2z"/>
		</g>
		<g>
			<path d="M133.9,129.3c-0.3,0.2-0.5,0.7-0.5,1.3v3c0,0-0.2,0.9,1.2,1.4l4.6,1c0,0,0.1,0,0.1,0c0,0,0.1,0,0.2,0.1
				c0.1,0.1,0.1,0.3,0.1,0.3v3.7c0,0,0,0.2-0.1,0.2c-0.1,0.1-0.3,0.1-0.5,0.1l-4.4-1c-0.2,0-0.5-0.1-0.5-0.5v-2.4c0,0,0-0.1,0.1-0.1
				c0.1,0,0.2-0.1,0.6-0.1l3.1,0.8c0.2,0,0.4,0.1,0.4,0.4v1.1c0,0-0.1,0.2-0.5,0.1c0,0-1.5-0.4-2-0.5c0-0.2,0-0.2,0-0.4
				c0.3,0.1,0.6,0.2,0.6,0.2c0.2,0.1,0.4-0.1,0.5-0.3c0.1-0.2-0.1-0.4-0.3-0.4l-1-0.3c-0.1,0-0.2,0-0.3,0.1
				c-0.1,0.1-0.2,0.2-0.2,0.3l-0.1,1.1c0,0.2,0.1,0.3,0.3,0.4l2.3,0.6c0.4,0.1,0.7,0,1-0.1c0.3-0.2,0.4-0.6,0.4-0.6v-1.2
				c0-0.8-0.7-1.1-1-1.1l-3-0.8c-0.6-0.1-1,0-1.3,0.2c-0.3,0.3-0.3,0.6-0.3,0.7v2.4c0,1,0.8,1.2,1.2,1.2l4.3,1
				c0.5,0.1,0.9,0,1.1-0.2c0.4-0.3,0.3-0.8,0.3-0.8v-3.7c0-0.5-0.2-0.8-0.3-0.9c-0.3-0.3-0.6-0.3-0.7-0.3c-0.1,0-4.5-1-4.5-1
				c-0.6-0.2-0.7-0.5-0.7-0.6v-3.1c0-0.3,0.1-0.6,0.2-0.7c0.1-0.1,0.3,0,0.3,0l4.3,0.8c0.5,0.1,0.7,0.3,0.7,0.4v2.2
				c0,0.6-0.1,0.7-0.1,0.7l-3.7-0.8c-0.4-0.2-0.4-0.4-0.4-0.4l0-1.2c0,0,0-0.1,0-0.1c0,0,0.1,0,0.2,0c0,0,1.9,0.4,2.4,0.5
				c0,0.1,0,0.2,0,0.4c-0.5-0.1-1.2-0.3-1.2-0.3c-0.2-0.1-0.4,0.1-0.4,0.3c-0.1,0.2,0.1,0.4,0.3,0.5l1.7,0.4c0.1,0,0.2,0,0.3-0.1
				c0.1-0.1,0.1-0.2,0.1-0.3v-1.2c0-0.2-0.1-0.3-0.3-0.4l-2.6-0.5c0,0-0.5-0.1-0.8,0.1c-0.2,0.1-0.3,0.3-0.3,0.7l0,1.2
				c0,0.3,0.2,0.8,0.9,1.1l3.7,0.8c0.1,0.1,0.4,0.1,0.6-0.1c0.3-0.2,0.5-0.6,0.4-1.3v-2.2c0-0.3-0.2-1-1.3-1.2l-4.2-0.8
				C134.8,129.2,134.3,129,133.9,129.3z M139.3,135.3C139.2,135.3,139.2,135.3,139.3,135.3C139.2,135.3,139.2,135.3,139.3,135.3z"/>
		</g>
		<g>
			<path d="M125.7,127.4c-0.3,0.2-0.5,0.6-0.5,1.3v3c0,0-0.2,0.9,1.2,1.4l4.6,1.3c0,0,0.1,0,0.1,0c0,0,0.1,0,0.2,0.1
				c0.1,0.1,0.1,0.2,0.1,0.4v3.7c0,0,0,0.2-0.1,0.2c-0.1,0.1-0.2,0.1-0.5,0l-4.4-1.3c-0.2,0-0.5-0.1-0.6-0.6v-2.4c0,0,0-0.1,0.1-0.1
				c0.1,0,0.2-0.1,0.6,0l3,1c0.1,0,0.4,0.1,0.4,0.4c0,0,0,1.1,0,1.1c0,0,0,0.1-0.1,0.1c-0.1,0.1-0.2,0.1-0.4,0c0,0-1.6-0.5-2-0.6
				c0-0.1,0-0.2,0-0.4c0.3,0.1,0.6,0.2,0.6,0.2c0.2,0.1,0.4,0,0.5-0.2c0.1-0.2,0-0.4-0.2-0.5l-1.1-0.4c-0.1,0-0.2,0-0.3,0.1
				c-0.1,0.1-0.2,0.2-0.2,0.3l-0.1,1.1c0,0.2,0.1,0.3,0.3,0.4l2.3,0.7c0.4,0.1,0.7,0.1,1-0.1c0.3-0.2,0.4-0.6,0.4-0.6v-1.2
				c0-0.8-0.6-1.1-1-1.1l-3-1c-0.6-0.1-1-0.1-1.3,0.1c-0.3,0.2-0.4,0.6-0.4,0.7l0,2.4c0.1,0.9,0.8,1.2,1.2,1.3l4.3,1.3
				c0.5,0.1,0.9,0.1,1.1-0.2c0.3-0.3,0.3-0.6,0.3-0.8c0,0,0-0.1,0-0.1v-3.7c0,0,0,0,0,0c0-0.5-0.2-0.7-0.3-0.9
				c-0.3-0.3-0.6-0.3-0.7-0.3c-0.1,0-4.5-1.3-4.5-1.3c-0.6-0.3-0.7-0.6-0.7-0.7c0,0,0-3.1,0-3.1c0-0.5,0.1-0.6,0.2-0.7
				c0.1-0.1,0.2,0,0.3,0l4.3,1c0.6,0.1,0.7,0.3,0.7,0.5v2.3c0,0.5-0.1,0.7-0.1,0.7l-3.7-1c-0.4-0.2-0.4-0.4-0.4-0.4l0-1.2
				c0,0,0-0.1,0-0.1c0,0,0.1,0,0.2,0c0,0,1.9,0.5,2.4,0.6c0,0.2,0,0.2,0,0.4c-0.5-0.2-1.2-0.4-1.2-0.4c-0.2-0.1-0.4,0.1-0.5,0.2
				c-0.1,0.2,0,0.4,0.2,0.5l1.7,0.5c0.1,0,0.2,0,0.3-0.1c0.1-0.1,0.2-0.2,0.2-0.3V130c0-0.2-0.1-0.3-0.3-0.4l-2.6-0.6
				c0,0-0.5-0.2-0.8,0.1c-0.2,0.1-0.3,0.3-0.3,0.7l0,1.2c0,0.1,0,0.7,0.9,1.1l3.7,1c0.1,0.1,0.4,0.1,0.7-0.1
				c0.3-0.2,0.5-0.6,0.4-1.3v-2.2c0,0,0.1-0.9-1.3-1.2l-4.2-1C126.6,127.3,126.1,127.1,125.7,127.4z M131,133.7L131,133.7L131,133.7
				z"/>
		</g>
		<g>
			<path d="M117.6,124.7c-0.3,0.2-0.5,0.6-0.5,1.2v3c0,0-0.2,0.9,1.2,1.5l4.6,1.7c0,0,0.1,0,0.1,0c0.1,0,0.4,0.1,0.4,0.5v3.7
				c0,0.1,0,0.2-0.1,0.2c-0.1,0-0.2,0-0.5,0l-4.4-1.7c-0.1,0-0.6-0.1-0.6-0.6v-2.4c0.1-0.1,0.3-0.2,0.7,0l3.1,1.3
				c0.1,0,0.4,0.1,0.4,0.5v1.1c-0.1,0-0.2,0.1-0.4,0c0,0-1.6-0.6-2.1-0.8c0-0.1,0-0.2,0-0.3c0.3,0.1,0.6,0.3,0.6,0.3
				c0.2,0.1,0.4,0,0.5-0.2c0.1-0.2,0-0.4-0.2-0.5l-1.1-0.5c-0.1,0-0.2,0-0.3,0c-0.1,0.1-0.2,0.2-0.2,0.3l-0.1,1.1
				c0,0.1,0.1,0.3,0.2,0.4l2.3,0.9c0.4,0.2,0.8,0.1,1,0c0.3-0.2,0.4-0.5,0.4-0.6v-1.2c0-0.8-0.6-1.1-0.9-1.2l-3-1.3
				c-0.6-0.2-1-0.2-1.3,0.1c-0.4,0.2-0.4,0.6-0.4,0.6v2.4c0,0.9,0.8,1.3,1.1,1.3l4.3,1.6c0.5,0.2,0.9,0.1,1.2-0.1
				c0.3-0.2,0.4-0.6,0.4-0.8c0,0,0-0.1,0-0.1v-3.7c0,0,0,0,0,0c0-0.5-0.2-0.7-0.3-0.9c-0.3-0.3-0.5-0.3-0.7-0.3c0,0-4.5-1.7-4.5-1.7
				c-0.7-0.3-0.7-0.7-0.7-0.7c0,0,0-3.1,0-3.1c0-0.4,0.1-0.6,0.2-0.6c0.1,0,0.2,0,0.3,0l4.3,1.4c0.7,0.2,0.7,0.5,0.7,0.6v2.2
				c0,0.5-0.1,0.7-0.1,0.7l-3.7-1.3c-0.4-0.2-0.5-0.5-0.5-0.5l0-1.2c0,0,0-0.1,0-0.1c0,0,0.2,0.1,0.2,0.1s2,0.7,2.4,0.8
				c0,0.1,0,0.2,0,0.4c-0.5-0.2-1.2-0.5-1.2-0.5c-0.2-0.1-0.4,0-0.5,0.2c-0.1,0.2,0,0.4,0.2,0.5l1.7,0.7c0.1,0,0.2,0,0.3-0.1
				c0.1-0.1,0.2-0.2,0.2-0.3v-1.2c0-0.2-0.1-0.3-0.3-0.4l-2.6-0.9c-0.1,0-0.5-0.2-0.9,0c-0.2,0.1-0.3,0.3-0.3,0.7l0,1.2
				c0,0.1,0,0.7,0.9,1.2l3.7,1.3c0.1,0.1,0.4,0.1,0.7,0c0.3-0.2,0.5-0.6,0.5-1.3v-2.2c0,0,0.1-0.9-1.3-1.3l-4.2-1.3
				C118.5,124.7,118,124.5,117.6,124.7z"/>
		</g>
		<g>
			<path d="M131.8,155.5c-0.3,0.2-0.5,0.7-0.5,1.2v2.9c0,0-0.2,0.9,1.2,1.3l4.6,1c0.1,0,0.1,0,0.1,0c0,0,0.2,0,0.2,0.1
				c0.1,0.1,0.1,0.2,0.1,0.3v3.6c0,0,0,0.2-0.1,0.2c-0.1,0.1-0.2,0.1-0.5,0l-4.4-1c-0.2,0-0.5-0.1-0.5-0.5v-2.3c0,0,0,0,0.1-0.1
				c0.1-0.1,0.2-0.1,0.6-0.1l3.1,0.8c0.1,0,0.4,0.1,0.4,0.3v1.1c0,0-0.1,0.2-0.5,0.1c0,0-1.5-0.4-2-0.5c0-0.1,0-0.2,0-0.3
				c0.3,0.1,0.6,0.2,0.6,0.2c0.2,0,0.4-0.1,0.5-0.2c0.1-0.2-0.1-0.4-0.3-0.5l-1.1-0.3c-0.1,0-0.2,0-0.3,0.1
				c-0.1,0.1-0.1,0.1-0.2,0.3l-0.1,1.1c0,0.2,0.1,0.3,0.3,0.4l2.3,0.6c0.4,0.1,0.7,0,1-0.1c0.3-0.2,0.4-0.6,0.4-0.6v-1.2
				c0-0.8-0.6-1-1-1.1l-3-0.8c-0.6-0.1-1,0-1.3,0.2c-0.3,0.2-0.3,0.6-0.3,0.6v2.3c0,0.9,0.8,1.2,1.2,1.2l4.4,1
				c0.5,0.1,0.9,0,1.1-0.2c0.3-0.3,0.3-0.8,0.3-0.8v-3.5c0-0.5-0.2-0.7-0.3-0.9c-0.3-0.3-0.6-0.3-0.8-0.3c-0.1,0-4.5-1-4.5-1
				c-0.7-0.2-0.7-0.5-0.7-0.6l0-3c0-0.3,0.1-0.5,0.2-0.6c0.1-0.1,0.3,0,0.3,0l4.3,0.7c0.5,0.1,0.7,0.3,0.7,0.4v2.2
				c0,0.5-0.1,0.7-0.1,0.7l-3.7-0.8c-0.4-0.1-0.4-0.3-0.4-0.3l0-1.2c0,0,0-0.1,0-0.1s0.1,0,0.2,0c0,0,1.9,0.3,2.4,0.4
				c0,0.1,0,0.2,0,0.4c-0.5-0.1-1.2-0.3-1.2-0.3c-0.2-0.1-0.4,0.1-0.5,0.3c-0.1,0.2,0.1,0.4,0.3,0.4l1.7,0.4c0.1,0,0.2,0,0.3-0.1
				c0.1-0.1,0.1-0.2,0.1-0.3v-1.2c0-0.2-0.1-0.3-0.3-0.4l-2.6-0.5c0,0-0.5-0.2-0.8,0.1c-0.1,0.1-0.3,0.3-0.3,0.7l0,1.2
				c0,0.3,0.2,0.8,0.9,1.1l3.7,0.8c0.1,0.1,0.4,0.1,0.6-0.1c0.3-0.2,0.5-0.6,0.4-1.3v-2.2c0,0,0.1-0.9-1.3-1.1l-4.2-0.7
				C132.7,155.4,132.3,155.2,131.8,155.5z M137.2,161.3C137.2,161.3,137.2,161.3,137.2,161.3C137.2,161.3,137.2,161.3,137.2,161.3z"
				/>
		</g>
		<g>
			<path d="M123.9,153.7c-0.3,0.2-0.5,0.7-0.5,1.3v3c0,0-0.2,0.9,1.2,1.4l4.6,1.3c0.1,0,0.1,0,0.1,0c0,0,0.2,0,0.2,0.1
				c0.1,0.1,0.1,0.2,0.1,0.4v3.7c0,0.1,0,0.2-0.1,0.2c-0.1,0.1-0.2,0.1-0.5,0l-4.4-1.3c-0.2,0-0.5-0.1-0.6-0.6v-2.4
				c0,0,0-0.1,0.1-0.1c0,0,0.2-0.1,0.6,0l3.1,1c0.1,0,0.4,0.1,0.4,0.4c0,0,0,1.1,0,1.1c0,0,0,0-0.1,0.1c-0.1,0.1-0.2,0.1-0.4,0
				c0,0-1.6-0.5-2-0.6c0-0.1,0-0.2,0-0.4c0.3,0.1,0.6,0.2,0.6,0.2c0.2,0.1,0.4,0,0.5-0.2c0.1-0.2,0-0.4-0.2-0.5l-1.1-0.3
				c-0.1-0.1-0.2,0-0.3,0c-0.1,0.1-0.2,0.2-0.2,0.3L125,163c0,0.2,0.1,0.3,0.3,0.4l2.3,0.7c0.4,0.1,0.8,0.1,1-0.1
				c0.3-0.2,0.4-0.6,0.4-0.6l0-1.2c0-0.8-0.6-1.1-1-1.1l-3-1c-0.6-0.1-1-0.1-1.3,0.1c-0.3,0.3-0.4,0.6-0.4,0.7v2.4
				c0,0.9,0.8,1.2,1.2,1.3l4.3,1.3c0.5,0.1,0.9,0.1,1.1-0.2c0.3-0.3,0.3-0.6,0.3-0.8c0,0,0,0,0-0.1v-3.6c0,0,0,0,0-0.1
				c0-0.4-0.2-0.7-0.3-0.9c-0.3-0.2-0.5-0.3-0.7-0.3c-0.1,0-4.5-1.3-4.5-1.3c-0.7-0.2-0.7-0.6-0.7-0.6V155c0-0.5,0.1-0.6,0.2-0.7
				c0.1-0.1,0.2,0,0.3,0l4.3,1c0.6,0.1,0.7,0.3,0.7,0.5v2.2c0,0.5-0.1,0.7-0.1,0.7l-3.7-1c-0.4-0.2-0.4-0.4-0.4-0.4l0-1.2
				c0,0,0-0.1,0-0.1c0,0,0.1,0,0.2,0c0,0,1.9,0.5,2.4,0.6c0,0.1,0,0.2,0,0.4c-0.5-0.2-1.2-0.4-1.2-0.4c-0.2-0.1-0.4,0.1-0.5,0.2
				c-0.1,0.2,0,0.4,0.2,0.5l1.7,0.5c0.1,0,0.2,0,0.3-0.1c0.1-0.1,0.2-0.2,0.2-0.3v-1.2c0-0.2-0.1-0.3-0.3-0.4l-2.6-0.7
				c0,0-0.5-0.2-0.8,0.1c-0.1,0.1-0.3,0.3-0.3,0.7l0,1.2c0,0.1,0,0.7,0.9,1.1l3.7,1c0.1,0.1,0.4,0.1,0.6-0.1
				c0.3-0.2,0.5-0.6,0.5-1.3v-2.2c0,0,0.1-0.9-1.3-1.2l-4.2-1C124.8,153.6,124.3,153.4,123.9,153.7z M129.3,160L129.3,160L129.3,160
				z"/>
		</g>
		<g>
			<path d="M116,151c-0.4,0.2-0.5,0.6-0.5,1.2v3c0,0-0.2,0.9,1.2,1.5l4.6,1.7c0,0,0.1,0,0.1,0c0.1,0,0.4,0.1,0.4,0.5v3.7
				c0,0.1,0,0.2,0,0.2c-0.1,0-0.2,0.1-0.5,0l-4.4-1.7c-0.1,0-0.6-0.1-0.6-0.6v-2.4c0.1-0.1,0.2-0.1,0.7,0l3,1.2
				c0.1,0,0.4,0.1,0.4,0.5v1.1c-0.1,0-0.2,0.1-0.4,0c0,0-1.6-0.7-2-0.8c0-0.1,0-0.2,0-0.3c0.3,0.1,0.6,0.2,0.6,0.2
				c0.2,0.1,0.4,0,0.5-0.2c0.1-0.2,0-0.4-0.2-0.5l-1-0.4c-0.1,0-0.2,0-0.3,0c-0.1,0.1-0.2,0.2-0.2,0.3l-0.1,1.1
				c0,0.2,0.1,0.3,0.2,0.4l2.3,0.9c0.4,0.1,0.7,0.1,1,0c0.3-0.2,0.4-0.5,0.4-0.6v-1.2c0-0.8-0.6-1.1-1-1.2l-3-1.2
				c-0.6-0.2-1-0.2-1.3,0c-0.3,0.2-0.4,0.6-0.4,0.7v2.4c0,0.9,0.8,1.3,1.1,1.3l4.3,1.6c0.5,0.2,0.9,0.1,1.2-0.1
				c0.3-0.2,0.3-0.6,0.3-0.8c0,0,0-0.1,0-0.1V159c0,0,0,0,0-0.1c0-0.4-0.2-0.7-0.3-0.9c-0.2-0.3-0.5-0.3-0.7-0.3
				c0,0-4.5-1.7-4.5-1.7c-0.7-0.3-0.7-0.7-0.7-0.7l0-3.1c0-0.4,0.1-0.6,0.2-0.6c0.1-0.1,0.2,0,0.3,0l4.3,1.4
				c0.7,0.2,0.7,0.6,0.7,0.6v2.3c0,0.5-0.1,0.7-0.1,0.7l-3.6-1.4c-0.4-0.2-0.5-0.5-0.5-0.5l0-1.2c0,0,0-0.1,0-0.1
				c0,0,0.2,0.1,0.2,0.1s2,0.7,2.4,0.8c0,0.1,0,0.2,0,0.4c-0.5-0.2-1.2-0.5-1.2-0.5c-0.2-0.1-0.4,0-0.5,0.2c-0.1,0.2,0,0.4,0.2,0.5
				l1.7,0.7c0.1,0.1,0.2,0.1,0.3,0c0.1-0.1,0.2-0.2,0.2-0.3v-1.2c0-0.2-0.1-0.3-0.3-0.4l-2.6-0.9c0,0-0.5-0.2-0.8,0
				c-0.2,0.1-0.3,0.3-0.3,0.7l0,1.2c0,0,0,0.7,0.9,1.2l3.6,1.3c0.1,0.1,0.4,0.1,0.7,0c0.3-0.2,0.5-0.6,0.5-1.3v-2.2
				c0,0,0.1-0.9-1.3-1.3L117,151C117,151,116.5,150.7,116,151z"/>
		</g>
		<g>
			<path d="M122.4,113.6c-1.5-0.3-2.9,0.6-3.1,1.8c-0.2,1.3,0.9,2.5,2.4,2.7c1.5,0.3,2.9-0.5,3.1-1.8
				C124.9,115.1,123.9,113.8,122.4,113.6z M122.3,116.7c-0.5-0.1-0.8-0.5-0.8-0.9c0.1-0.4,0.5-0.7,1-0.6c0.5,0.1,0.9,0.5,0.8,0.9
				C123.2,116.5,122.8,116.8,122.3,116.7z"/>
		</g>
		<g>
			<path d="M129.5,116.4c-1.5-0.1-2.8,0.8-2.9,2.1c-0.1,1.3,1.1,2.4,2.6,2.5c1.5,0.1,2.8-0.8,2.9-2.1
				C132.2,117.7,131,116.5,129.5,116.4z M129.7,119.5c-0.5,0-0.9-0.4-0.9-0.8c0-0.4,0.5-0.8,1-0.7c0.5,0,0.9,0.4,0.9,0.8
				C130.6,119.2,130.2,119.5,129.7,119.5z"/>
		</g>
		<g>
			<path d="M137.1,118.6c-1.5-0.3-2.9,0.5-3.1,1.8c-0.2,1.2,0.8,2.5,2.4,2.8c1.5,0.3,2.9-0.6,3.1-1.8
				C139.7,120.1,138.6,118.9,137.1,118.6z M137,121.7c-0.5-0.1-0.8-0.5-0.8-0.9c0.1-0.4,0.5-0.7,1-0.6c0.5,0.1,0.8,0.5,0.8,1
				C138,121.5,137.5,121.8,137,121.7z"/>
		</g>
		<g>
			<path d="M189.2,113.6c-1.5,0.3-2.6,1.5-2.4,2.8c0.2,1.3,1.6,2.1,3.1,1.8c1.5-0.3,2.6-1.5,2.4-2.8
				C192.1,114.1,190.7,113.3,189.2,113.6z M189.3,116.7c-0.5,0.1-1-0.2-1-0.6c-0.1-0.4,0.3-0.8,0.8-0.9c0.5-0.1,1,0.2,1,0.6
				C190.1,116.2,189.8,116.6,189.3,116.7z"/>
		</g>
		<g>
			<path d="M182.4,117c-1.5,0.1-2.7,1.2-2.6,2.5c0.1,1.3,1.4,2.2,3,2.1c1.5-0.1,2.7-1.2,2.6-2.5C185.2,117.8,183.9,116.8,182.4,117z
				 M182.2,120c-0.5,0-1-0.3-1-0.7c0-0.4,0.4-0.8,0.9-0.9c0.5,0,0.9,0.3,1,0.7C183.1,119.6,182.7,120,182.2,120z"/>
		</g>
		<g>
			<path d="M174.7,118.9c-1.5,0.3-2.6,1.5-2.3,2.8c0.2,1.3,1.6,2.1,3.1,1.8c1.5-0.3,2.6-1.5,2.4-2.8
				C177.6,119.4,176.2,118.6,174.7,118.9z M174.8,121.9c-0.5,0.1-1-0.2-1-0.6c-0.1-0.4,0.3-0.9,0.8-0.9c0.5-0.1,1,0.2,1,0.6
				C175.6,121.4,175.3,121.9,174.8,121.9z"/>
		</g>
		<g>
			<path d="M191,140.5c-1.5,0.2-2.6,1.5-2.4,2.7c0.2,1.3,1.6,2.1,3.1,1.8c1.5-0.3,2.6-1.5,2.4-2.7
				C193.9,141.1,192.5,140.2,191,140.5z M191.1,143.6c-0.5,0.1-1-0.2-1-0.6c-0.1-0.4,0.3-0.9,0.8-0.9c0.5-0.1,1,0.2,1,0.6
				C191.9,143.1,191.6,143.5,191.1,143.6z"/>
		</g>
		<g>
			<path d="M183.7,143c-1.5,0.1-2.7,1.2-2.6,2.5c0.1,1.3,1.4,2.2,3,2.1c1.5-0.1,2.7-1.2,2.6-2.5C186.5,143.8,185.2,142.8,183.7,143z
				 M183.5,146c-0.5,0-1-0.3-1-0.7c0-0.4,0.4-0.8,0.9-0.9c0.5,0,1,0.3,1,0.7C184.4,145.6,184,146,183.5,146z"/>
		</g>
		<g>
			<path d="M175.7,144.9c-1.5,0.3-2.5,1.5-2.3,2.8c0.2,1.3,1.6,2.1,3.1,1.8c1.5-0.3,2.6-1.5,2.4-2.8
				C178.7,145.4,177.3,144.6,175.7,144.9z M175.9,148c-0.5,0.1-1-0.2-1-0.6c-0.1-0.4,0.3-0.8,0.8-0.9c0.5-0.1,1,0.2,1,0.6
				C176.7,147.5,176.4,147.9,175.9,148z"/>
		</g>
		<g>
			<path d="M192.4,166.4c-1.5,0.2-2.6,1.5-2.4,2.7c0.2,1.3,1.6,2.1,3.1,1.8c1.5-0.2,2.6-1.5,2.4-2.7
				C195.3,167,193.9,166.2,192.4,166.4z M192.5,169.5c-0.5,0.1-1-0.2-1-0.6c-0.1-0.5,0.3-0.9,0.8-0.9c0.5-0.1,1,0.2,1,0.6
				C193.3,169,193,169.4,192.5,169.5z"/>
		</g>
		<g>
			<path d="M185.3,169.5c-1.5,0.1-2.7,1.2-2.6,2.5c0.1,1.3,1.4,2.2,2.9,2.1c1.5-0.1,2.7-1.2,2.6-2.5
				C188.2,170.3,186.9,169.4,185.3,169.5z M185.1,172.6c-0.5,0.1-1-0.3-1-0.7c0-0.5,0.4-0.8,0.9-0.9c0.5,0,0.9,0.3,1,0.7
				C186,172.2,185.6,172.6,185.1,172.6z"/>
		</g>
		<g>
			<path d="M177.4,171.4c-1.5,0.3-2.6,1.5-2.3,2.8c0.2,1.3,1.6,2.1,3.1,1.8c1.5-0.3,2.6-1.5,2.4-2.8
				C180.3,172,178.9,171.2,177.4,171.4z M177.5,174.5c-0.5,0.1-1-0.2-1-0.6c-0.1-0.4,0.3-0.9,0.8-0.9c0.5-0.1,1,0.2,1,0.6
				C178.4,174,178,174.4,177.5,174.5z"/>
		</g>
		<g>
			<path d="M120.1,140.4c-1.5-0.3-2.9,0.6-3.1,1.8c-0.2,1.3,0.8,2.5,2.4,2.8c1.5,0.2,2.9-0.6,3.1-1.8
				C122.7,141.8,121.7,140.6,120.1,140.4z M120,143.4c-0.5-0.1-0.8-0.5-0.8-0.9c0.1-0.4,0.5-0.7,1-0.6c0.5,0.1,0.8,0.5,0.8,0.9
				C121,143.3,120.6,143.5,120,143.4z"/>
		</g>
		<g>
			<path d="M127.6,142.8c-1.5-0.2-2.9,0.7-3,2c-0.1,1.3,1,2.5,2.5,2.6c1.5,0.2,2.9-0.7,3-2C130.3,144.2,129.1,143,127.6,142.8z
				 M127.7,145.9c-0.5-0.1-0.9-0.5-0.8-0.9c0.1-0.4,0.5-0.7,1-0.7c0.5,0.1,0.9,0.5,0.8,0.9C128.6,145.7,128.2,146,127.7,145.9z"/>
		</g>
		<g>
			<path d="M135.7,144.8c-1.5-0.3-2.9,0.5-3.1,1.8c-0.2,1.3,0.8,2.5,2.4,2.8c1.5,0.2,2.9-0.6,3.1-1.8
				C138.3,146.2,137.3,145,135.7,144.8z M135.6,147.8c-0.5-0.1-0.8-0.5-0.8-0.9c0.1-0.4,0.5-0.7,1-0.6c0.5,0.1,0.8,0.5,0.8,0.9
				C136.6,147.7,136.1,147.9,135.6,147.8z"/>
		</g>
		<g>
			<path d="M118.2,165.9c-1.5-0.3-2.9,0.6-3.1,1.8c-0.2,1.3,0.9,2.5,2.4,2.8c1.5,0.2,2.9-0.6,3.1-1.8
				C120.8,167.4,119.7,166.2,118.2,165.9z M118.1,169c-0.5-0.1-0.8-0.5-0.8-0.9c0.1-0.4,0.5-0.7,1-0.6c0.5,0.1,0.8,0.5,0.8,0.9
				C119.1,168.8,118.6,169.1,118.1,169z"/>
		</g>
		<g>
			<path d="M125.9,168.4c-1.5-0.1-2.9,0.8-3,2.1c-0.1,1.3,1.1,2.4,2.6,2.5c1.5,0.1,2.9-0.8,3-2.1
				C128.6,169.7,127.5,168.6,125.9,168.4z M126.1,171.5c-0.5,0-0.9-0.4-0.9-0.8c0-0.4,0.5-0.8,1-0.7c0.5,0.1,0.9,0.4,0.9,0.9
				C127.1,171.3,126.6,171.6,126.1,171.5z"/>
		</g>
		<g>
			<path d="M133.9,170.5c-1.5-0.3-2.9,0.6-3.2,1.8c-0.2,1.3,0.8,2.5,2.4,2.7c1.5,0.3,2.9-0.5,3.1-1.8
				C136.5,172,135.4,170.8,133.9,170.5z M133.8,173.6c-0.5-0.1-0.9-0.5-0.8-0.9c0.1-0.4,0.5-0.7,1-0.6c0.5,0.1,0.8,0.5,0.8,0.9
				C134.8,173.4,134.3,173.7,133.8,173.6z"/>
		</g>
		<g>
			<path d="M119.6,108.6c0,0.4-0.3,0.7-0.7,0.7c-0.4,0-0.7-0.3-0.7-0.7c0-0.4,0.3-0.7,0.7-0.7C119.3,107.9,119.6,108.2,119.6,108.6z
				"/>
		</g>
		<g>
			<path d="M117.3,110.8c0,0.4-0.3,0.7-0.7,0.7c-0.4,0-0.7-0.3-0.7-0.7c0-0.4,0.3-0.7,0.7-0.7C117,110.1,117.3,110.4,117.3,110.8z"
				/>
		</g>
		<g>
			<path d="M117,115.1c0,0.4-0.3,0.7-0.7,0.7c-0.4,0-0.7-0.3-0.7-0.7c0-0.4,0.3-0.7,0.7-0.7C116.7,114.4,117,114.7,117,115.1z"/>
		</g>
		<g>
			<path d="M116.7,119.2c0,0.4-0.3,0.7-0.7,0.7c-0.4,0-0.7-0.3-0.7-0.7c0-0.4,0.3-0.7,0.7-0.7C116.4,118.6,116.7,118.9,116.7,119.2z
				"/>
		</g>
		<g>
			<path d="M142.8,118.1c0,0.4-0.3,0.7-0.7,0.7c-0.4,0-0.7-0.3-0.7-0.7c0-0.4,0.3-0.7,0.7-0.7C142.5,117.4,142.8,117.7,142.8,118.1z
				"/>
		</g>
		<g>
			<path d="M142.4,122.2c0,0.4-0.3,0.7-0.7,0.7c-0.4,0-0.7-0.3-0.7-0.7c0-0.4,0.3-0.7,0.7-0.7C142.1,121.5,142.4,121.8,142.4,122.2z
				"/>
		</g>
		<g>
			<path d="M142,126.3c0,0.4-0.3,0.7-0.7,0.7c-0.4,0-0.7-0.3-0.7-0.7c0-0.4,0.3-0.7,0.7-0.7C141.7,125.7,142,125.9,142,126.3z"/>
		</g>
		<g>
			<path d="M169,118.1c0,0.4,0.3,0.7,0.7,0.7s0.7-0.3,0.7-0.7c0-0.4-0.3-0.7-0.7-0.7S169,117.7,169,118.1z"/>
		</g>
		<g>
			<path d="M169.4,122.2c0,0.4,0.3,0.7,0.7,0.7c0.4,0,0.7-0.3,0.7-0.7c0-0.4-0.3-0.7-0.7-0.7C169.7,121.5,169.4,121.8,169.4,122.2z"
				/>
		</g>
		<g>
			<path d="M170,126.3c0,0.4,0.3,0.7,0.7,0.7s0.7-0.3,0.7-0.7c0-0.4-0.3-0.7-0.7-0.7S170,125.9,170,126.3z"/>
		</g>
		<g>
			<path d="M193.9,110.8c0,0.4,0.3,0.7,0.7,0.7c0.4,0,0.7-0.3,0.7-0.7c0-0.4-0.3-0.7-0.7-0.7C194.2,110.1,193.9,110.4,193.9,110.8z"
				/>
		</g>
		<g>
			<path d="M194.3,115c0,0.4,0.3,0.7,0.7,0.7c0.4,0,0.7-0.3,0.7-0.7c0-0.4-0.3-0.7-0.7-0.7C194.6,114.3,194.3,114.6,194.3,115z"/>
		</g>
		<g>
			<path d="M194.5,119.2c0,0.4,0.3,0.7,0.7,0.7c0.4,0,0.7-0.3,0.7-0.7c0-0.4-0.3-0.7-0.7-0.7C194.8,118.6,194.5,118.9,194.5,119.2z"
				/>
		</g>
		<g>
			<path d="M123.8,110.3c0,0.4-0.3,0.7-0.7,0.7c-0.4,0-0.7-0.3-0.7-0.7c0-0.4,0.3-0.7,0.7-0.7C123.5,109.7,123.8,110,123.8,110.3z"
				/>
		</g>
		<g>
			<path d="M128.6,111.5c0,0.4-0.3,0.7-0.7,0.7c-0.4,0-0.7-0.3-0.7-0.7c0-0.4,0.3-0.7,0.7-0.7C128.3,110.9,128.6,111.2,128.6,111.5z
				"/>
		</g>
		<g>
			<path d="M133.2,112.7c0,0.4-0.3,0.7-0.7,0.7c-0.4,0-0.7-0.3-0.7-0.7c0-0.4,0.3-0.7,0.7-0.7C132.9,112,133.2,112.3,133.2,112.7z"
				/>
		</g>
		<g>
			<path d="M137.8,113.8c0,0.4-0.3,0.7-0.7,0.7c-0.4,0-0.7-0.3-0.7-0.7c0-0.4,0.3-0.7,0.7-0.7C137.6,113.2,137.8,113.5,137.8,113.8z
				"/>
		</g>
		<g>
			<path d="M143.1,114.8c0,0.4-0.3,0.7-0.7,0.7c-0.4,0-0.7-0.3-0.7-0.7s0.3-0.7,0.7-0.7C142.8,114.1,143.1,114.4,143.1,114.8z"/>
		</g>
		<g>
			<path d="M115.4,138.2c0,0.4-0.3,0.6-0.6,0.6c-0.3,0-0.6-0.3-0.6-0.6c0-0.3,0.3-0.6,0.6-0.6C115.1,137.6,115.4,137.8,115.4,138.2z
				"/>
		</g>
		<g>
			<path d="M115.2,142c0,0.3-0.3,0.6-0.6,0.6c-0.3,0-0.6-0.3-0.6-0.6s0.3-0.6,0.6-0.6C114.9,141.4,115.2,141.7,115.2,142z"/>
		</g>
		<g>
			<path d="M115.1,145.6c0,0.3-0.3,0.6-0.6,0.6c-0.3,0-0.6-0.3-0.6-0.6c0-0.3,0.3-0.6,0.6-0.6C114.8,144.9,115.1,145.2,115.1,145.6z
				"/>
		</g>
		<g>
			<g>
				<path d="M195.8,138.5c0,0.3,0.3,0.6,0.6,0.6c0.3,0,0.6-0.3,0.6-0.6c0-0.3-0.3-0.6-0.6-0.6C196.1,137.8,195.8,138.1,195.8,138.5z
					"/>
			</g>
			<g>
				<path d="M196,142.3c0,0.3,0.3,0.6,0.6,0.6c0.3,0,0.6-0.3,0.6-0.6c0-0.3-0.3-0.6-0.6-0.6C196.3,141.7,196,142,196,142.3z"/>
			</g>
			<g>
				<path d="M196.2,145.9c0,0.3,0.3,0.6,0.6,0.6c0.3,0,0.6-0.3,0.6-0.6c0-0.4-0.3-0.6-0.6-0.6C196.4,145.2,196.2,145.5,196.2,145.9z
					"/>
			</g>
		</g>
		<g>
			<g>
				<path d="M170.1,144.9c0,0.3,0.3,0.6,0.6,0.6c0.3,0,0.6-0.3,0.6-0.6c0-0.4-0.3-0.6-0.6-0.6C170.4,144.3,170.1,144.5,170.1,144.9z
					"/>
			</g>
			<g>
				<path d="M170.3,148.7c0,0.4,0.3,0.6,0.6,0.6c0.3,0,0.6-0.3,0.6-0.6c0-0.3-0.3-0.6-0.6-0.6C170.6,148.1,170.3,148.4,170.3,148.7z
					"/>
			</g>
			<g>
				<path d="M170.5,152.3c0,0.3,0.3,0.6,0.6,0.6c0.3,0,0.6-0.3,0.6-0.6s-0.3-0.6-0.6-0.6C170.7,151.6,170.5,151.9,170.5,152.3z"/>
			</g>
		</g>
		<g>
			<path d="M141.7,145c0,0.4-0.3,0.6-0.6,0.6c-0.3,0-0.6-0.3-0.6-0.6c0-0.4,0.3-0.6,0.6-0.6C141.4,144.4,141.7,144.7,141.7,145z"/>
		</g>
		<g>
			<path d="M141.6,148.7c0,0.3-0.3,0.6-0.6,0.6c-0.3,0-0.6-0.3-0.6-0.6c0-0.3,0.3-0.6,0.6-0.6C141.3,148.1,141.6,148.4,141.6,148.7z
				"/>
		</g>
		<g>
			<path d="M141.4,152.4c0,0.3-0.3,0.6-0.6,0.6c-0.3,0-0.6-0.3-0.6-0.6c0-0.3,0.3-0.6,0.6-0.6C141.2,151.8,141.4,152.1,141.4,152.4z
				"/>
		</g>
		<g>
			<path d="M113,168.2c0,0.4-0.3,0.6-0.6,0.6c-0.3,0-0.6-0.3-0.6-0.6c0-0.3,0.3-0.6,0.6-0.6C112.7,167.6,113,167.8,113,168.2z"/>
		</g>
		<g>
			<path d="M113.4,165.3c0,0.4-0.3,0.6-0.6,0.6c-0.4,0-0.6-0.3-0.6-0.6c0-0.3,0.3-0.6,0.6-0.6C113.2,164.7,113.4,165,113.4,165.3z"
				/>
		</g>
		<g>
			<path d="M139.3,176.5c0,0.3-0.3,0.6-0.6,0.6c-0.3,0-0.6-0.3-0.6-0.6c0-0.3,0.3-0.6,0.6-0.6C139,175.8,139.3,176.1,139.3,176.5z"
				/>
		</g>
		<g>
			<path d="M139.7,173.5c0,0.4-0.3,0.6-0.6,0.6c-0.3,0-0.6-0.3-0.6-0.6c0-0.4,0.3-0.6,0.6-0.6C139.4,172.9,139.7,173.1,139.7,173.5z
				"/>
		</g>
		<g>
			<path d="M173.1,176.8c0,0.3-0.3,0.6-0.6,0.6c-0.3,0-0.6-0.3-0.6-0.6c0-0.3,0.3-0.6,0.6-0.6C172.8,176.2,173.1,176.4,173.1,176.8z
				"/>
		</g>
		<g>
			<path d="M172.8,173.7c0,0.3-0.3,0.6-0.6,0.6c-0.3,0-0.6-0.3-0.6-0.6c0-0.3,0.3-0.6,0.6-0.6C172.5,173.1,172.8,173.3,172.8,173.7z
				"/>
		</g>
		<g>
			<path d="M198,168.1c0,0.4,0.3,0.6,0.6,0.6c0.4,0,0.6-0.3,0.6-0.6c0-0.3-0.3-0.6-0.6-0.6C198.3,167.5,198,167.7,198,168.1z"/>
		</g>
		<g>
			<path d="M197.7,165.1c0,0.3,0.3,0.6,0.6,0.6c0.3,0,0.6-0.3,0.6-0.6c0-0.4-0.3-0.6-0.6-0.6C198,164.5,197.7,164.8,197.7,165.1z"/>
		</g>
		<g>
			<path d="M112.7,171.3c0,0.3-0.3,0.6-0.6,0.6c-0.4,0-0.6-0.3-0.6-0.6c0-0.3,0.3-0.6,0.6-0.6C112.4,170.7,112.7,170.9,112.7,171.3z
				"/>
		</g>
		<g>
			<path d="M199.5,171.3c0,0.3-0.3,0.6-0.6,0.6c-0.3,0-0.6-0.3-0.6-0.6c0-0.3,0.3-0.6,0.6-0.6C199.3,170.7,199.5,170.9,199.5,171.3z
				"/>
		</g>
		<g>
			<path d="M116.9,172.9c0,0.4-0.3,0.6-0.6,0.6c-0.3,0-0.6-0.3-0.6-0.6c0-0.3,0.3-0.6,0.6-0.6C116.7,172.3,116.9,172.6,116.9,172.9z
				"/>
		</g>
		<g>
			<path d="M121.3,174.5c0,0.3-0.3,0.6-0.6,0.6c-0.3,0-0.6-0.3-0.6-0.6c0-0.4,0.3-0.6,0.6-0.6C121,173.8,121.3,174.1,121.3,174.5z"
				/>
		</g>
		<g>
			<path d="M125.6,176.1c0,0.4-0.3,0.6-0.6,0.6c-0.4,0-0.6-0.3-0.6-0.6c0-0.3,0.3-0.6,0.6-0.6C125.3,175.5,125.6,175.8,125.6,176.1z
				"/>
		</g>
		<g>
			<path d="M130.1,177.5c0,0.3-0.3,0.6-0.6,0.6c-0.3,0-0.6-0.3-0.6-0.6c0-0.4,0.3-0.6,0.6-0.6C129.8,176.9,130.1,177.2,130.1,177.5z
				"/>
		</g>
		<g>
			<path d="M134.4,178.8c0,0.4-0.3,0.6-0.6,0.6c-0.3,0-0.6-0.3-0.6-0.6c0-0.3,0.3-0.6,0.6-0.6C134.1,178.2,134.4,178.4,134.4,178.8z
				"/>
		</g>
		<g>
			<path d="M138.8,179.8c0,0.3-0.3,0.6-0.6,0.6c-0.3,0-0.6-0.3-0.6-0.6c0-0.3,0.3-0.6,0.6-0.6C138.5,179.1,138.8,179.4,138.8,179.8z
				"/>
		</g>
		<g>
			<path d="M143.1,180.5c0,0.3-0.3,0.6-0.6,0.6c-0.3,0-0.6-0.3-0.6-0.6c0-0.3,0.3-0.6,0.6-0.6C142.8,179.9,143.1,180.2,143.1,180.5z
				"/>
		</g>
		<g>
			<path d="M147.4,181.2c0,0.3-0.3,0.6-0.6,0.6c-0.3,0-0.6-0.3-0.6-0.6c0-0.4,0.3-0.6,0.6-0.6C147.2,180.6,147.4,180.8,147.4,181.2z
				"/>
		</g>
		<g>
			<path d="M152,181.8c0,0.4-0.3,0.6-0.6,0.6c-0.4,0-0.6-0.3-0.6-0.6c0-0.3,0.3-0.6,0.6-0.6C151.8,181.2,152,181.5,152,181.8z"/>
		</g>
		<g>
			<path d="M156.4,181.8c0,0.4-0.3,0.6-0.6,0.6c-0.3,0-0.6-0.3-0.6-0.6c0-0.3,0.3-0.6,0.6-0.6C156.1,181.2,156.4,181.5,156.4,181.8z
				"/>
		</g>
		<g>
			<path d="M160.7,181.7c0,0.3-0.3,0.6-0.6,0.6c-0.3,0-0.6-0.3-0.6-0.6c0-0.3,0.3-0.6,0.6-0.6C160.4,181.1,160.7,181.4,160.7,181.7z
				"/>
		</g>
		<g>
			<path d="M164.9,181.3c0,0.3-0.3,0.6-0.6,0.6c-0.3,0-0.6-0.3-0.6-0.6c0-0.4,0.3-0.6,0.6-0.6C164.7,180.7,164.9,181,164.9,181.3z"
				/>
		</g>
		<g>
			<path d="M169.2,180.7c0,0.4-0.3,0.6-0.6,0.6c-0.4,0-0.6-0.3-0.6-0.6c0-0.3,0.3-0.6,0.6-0.6C168.9,180.1,169.2,180.4,169.2,180.7z
				"/>
		</g>
		<g>
			<path d="M173.5,180c0,0.3-0.3,0.6-0.6,0.6c-0.3,0-0.6-0.3-0.6-0.6c0-0.3,0.3-0.6,0.6-0.6C173.2,179.4,173.5,179.7,173.5,180z"/>
		</g>
		<g>
			<path d="M177.8,179.3c0,0.3-0.3,0.6-0.6,0.6c-0.3,0-0.6-0.3-0.6-0.6c0-0.4,0.3-0.6,0.6-0.6C177.6,178.7,177.8,179,177.8,179.3z"
				/>
		</g>
		<g>
			<path d="M182.2,178.1c0,0.3-0.3,0.6-0.6,0.6c-0.3,0-0.6-0.3-0.6-0.6c0-0.3,0.3-0.6,0.6-0.6C181.9,177.4,182.2,177.7,182.2,178.1z
				"/>
		</g>
		<g>
			<path d="M186.6,177c0,0.3-0.3,0.6-0.6,0.6c-0.3,0-0.6-0.3-0.6-0.6c0-0.3,0.3-0.6,0.6-0.6C186.4,176.4,186.6,176.6,186.6,177z"/>
		</g>
		<g>
			<path d="M191,175.5c0,0.3-0.3,0.6-0.6,0.6c-0.3,0-0.6-0.3-0.6-0.6c0-0.3,0.3-0.6,0.6-0.6C190.7,174.9,191,175.2,191,175.5z"/>
		</g>
		<g>
			<path d="M195.4,173.6c0,0.3-0.3,0.6-0.6,0.6c-0.3,0-0.6-0.3-0.6-0.6c0-0.3,0.3-0.6,0.6-0.6C195.2,173,195.4,173.2,195.4,173.6z"
				/>
		</g>
		<g>
			<path d="M147.5,115.5c0,0.4-0.3,0.7-0.7,0.7c-0.4,0-0.7-0.3-0.7-0.7c0-0.4,0.3-0.7,0.7-0.7C147.2,114.8,147.5,115.1,147.5,115.5z
				"/>
		</g>
		<g>
			<path d="M152,115.9c0,0.4-0.3,0.7-0.7,0.7s-0.7-0.3-0.7-0.7c0-0.4,0.3-0.7,0.7-0.7S152,115.5,152,115.9z"/>
		</g>
		<g>
			<path d="M156.6,116c0,0.4-0.3,0.7-0.7,0.7c-0.4,0-0.7-0.3-0.7-0.7c0-0.4,0.3-0.7,0.7-0.7C156.3,115.3,156.6,115.6,156.6,116z"/>
		</g>
		<g>
			<path d="M161.2,115.9c0,0.4-0.3,0.7-0.7,0.7c-0.4,0-0.7-0.3-0.7-0.7c0-0.4,0.3-0.7,0.7-0.7C160.9,115.2,161.2,115.5,161.2,115.9z
				"/>
		</g>
		<g>
			<path d="M165.9,115.5c0,0.4-0.3,0.7-0.7,0.7c-0.4,0-0.7-0.3-0.7-0.7c0-0.4,0.3-0.7,0.7-0.7C165.6,114.8,165.9,115.1,165.9,115.5z
				"/>
		</g>
		<g>
			<path d="M170.1,115c0,0.4-0.3,0.7-0.7,0.7c-0.4,0-0.7-0.3-0.7-0.7c0-0.4,0.3-0.7,0.7-0.7C169.8,114.3,170.1,114.6,170.1,115z"/>
		</g>
		<g>
			<path d="M175.5,114.1c0,0.4-0.3,0.7-0.7,0.7c-0.4,0-0.7-0.3-0.7-0.7c0-0.4,0.3-0.7,0.7-0.7C175.2,113.4,175.5,113.7,175.5,114.1z
				"/>
		</g>
		<g>
			<path d="M180.5,113c0,0.4-0.3,0.7-0.7,0.7c-0.4,0-0.7-0.3-0.7-0.7c0-0.4,0.3-0.7,0.7-0.7C180.2,112.3,180.5,112.6,180.5,113z"/>
		</g>
		<g>
			<path d="M185.1,111.8c0,0.4-0.3,0.7-0.7,0.7c-0.4,0-0.7-0.3-0.7-0.7c0-0.4,0.3-0.7,0.7-0.7C184.7,111.1,185.1,111.4,185.1,111.8z
				"/>
		</g>
		<g>
			<path d="M189.4,110.5c0,0.4-0.3,0.7-0.7,0.7c-0.4,0-0.7-0.3-0.7-0.7c0-0.4,0.3-0.7,0.7-0.7C189.1,109.8,189.4,110.1,189.4,110.5z
				"/>
		</g>
		<g>
			<path d="M193.4,108.7c0,0.4-0.3,0.7-0.7,0.7c-0.4,0-0.7-0.3-0.7-0.7c0-0.4,0.3-0.7,0.7-0.7C193.1,108.1,193.4,108.4,193.4,108.7z
				"/>
		</g>
		<g>
			<path d="M195.3,121.6c-9,4.7-24.9,6.4-25.1,6.5c-0.3,0-0.5,0.3-0.5,0.6c0.1,0.3,0.3,0.5,0.6,0.5c0.7-0.1,15.4-1.7,24.7-6.2
				c0.1,1.4,0.8,11.9,0.8,12.5c-2.1,0.9-13.8,5.5-25.3,6.5c-0.3,0-0.5,0.3-0.5,0.5c0,0,0,0,0,0.1c0,0.3,0.3,0.6,0.6,0.5
				c13.1-1.5,25.9-6.7,26-6.8l0.4-0.2l-1-15L195.3,121.6z"/>
		</g>
		<g>
			<path d="M116.4,121.6c9,4.7,25,6.6,25.2,6.6c0.3,0,0.5,0.3,0.5,0.6c0,0.3-0.3,0.5-0.6,0.5c-0.7-0.1-15.5-1.8-24.8-6.4
				c-0.1,1.4-0.8,11.9-0.8,12.5c2.2,0.9,13.8,5.5,25.3,6.5c0.3,0,0.5,0.3,0.5,0.5c0,0,0,0,0,0.1c0,0.3-0.3,0.6-0.6,0.5
				c-13.1-1.5-25.9-6.7-26-6.8l-0.4-0.2l1-15L116.4,121.6z"/>
		</g>
		<g>
			<path d="M197.1,147.9c-9,4.7-26.6,6.4-26.8,6.4c-0.3,0-0.5,0.3-0.5,0.6c0,0.3,0.3,0.5,0.6,0.5c0.7-0.1,17.1-1.6,26.5-6.1
				c0.1,1.4,0.8,11.9,0.8,12.6c-2.1,0.9-14.4,5.9-25.8,6.5c-0.3,0-0.5,0.3-0.5,0.6c0,0,0,0,0,0c0,0.3,0.3,0.5,0.6,0.5
				c12.6-0.7,26.4-6.7,26.5-6.7l0.4-0.2l-1-15L197.1,147.9z"/>
		</g>
		<g>
			<path d="M114.6,147.9c9,4.7,26.6,6.4,26.8,6.4c0.3,0,0.5,0.3,0.5,0.6c0,0.3-0.3,0.5-0.6,0.5c-0.7-0.1-17.1-1.6-26.4-6.1
				c-0.1,1.4-0.8,11.9-0.8,12.6c2.1,0.9,14.5,5.9,25.8,6.5c0.3,0,0.5,0.3,0.5,0.6c0,0,0,0,0,0c0,0.3-0.3,0.5-0.6,0.5
				c-12.7-0.7-26.4-6.7-26.6-6.7l-0.4-0.2l1-15L114.6,147.9z"/>
		</g>
		<g>
			<path d="M146.8,132.5l4.6-0.2c2.1-0.4,1.7-3.1,1.7-3.1c0-2-1.1-1.8-2.1-2.2c-1-0.4-3.9,0.2-3.9,0.2c-1.6-0.1-1.2-1.4-1.2-1.4
				c-0.1-2.1-1.6-2.2-1.6-2.2c-1.7-0.1-1.8,3.1-1.8,3.1l0.1,11.7c0,0,0.2,1.3,0.3,2.2c0.1,0.9,1.3,1.2,2,1.2
				c0.7,0.1,1.2-0.3,1.2-0.3l2.7-0.1c2.8-0.3,3.2-1.2,3.6-2.1c0,0,0-0.1,0-0.1c0.3-1,0-3,0-3c-0.5-2.5-5.6-1.6-5.6-1.6
				c-1.5,0.1-1.3-1-1.3-1C145.5,132.5,146.8,132.5,146.8,132.5z M146.7,136.8h1.8c0.7,0,1.2,0.5,1.2,1.2c0,0.6-0.6,1.2-1.2,1.2h-1.8
				c-0.7,0-1.2-0.5-1.2-1.2C145.5,137.3,146.1,136.8,146.7,136.8z M145.7,130c0-0.7,0.6-1.2,1.3-1.2h2c0.7,0,1.4,0.5,1.4,1.2
				c0,0.6-0.6,1.2-1.4,1.2h-2C146.3,131.2,145.7,130.6,145.7,130z"/>
		</g>
		<g>
			<path d="M157.5,126l10.3,0.1c0,0,1.8,0.1,1.8,1.5c0,0-0.3,1.9-1.8,1.9l-2.7,0.2c0,0-1-0.2-1,1.1c0,0-0.3,1.2,1.4,1.4
				c0,0,4.3,0.1,4.7,1.9c0,0,1.5,2.1,0.5,5c0,0-1.3,3.2-2.4,0l-0.4-2.1l-0.3-0.8c0,0-0.5-1.1-1.9-1.1c0,0-1.5-0.3-1.5,1.9l-0.3,3.5
				c0,0-0.7,2.1-1.8,2.1c0,0-1.9,0.2-1.9-2.7l-0.2-3.4c0,0,0.3-1.3-1.7-1.4c0,0-2-0.3-1.9,2.5l-0.2,1.6c0,0-0.4,1.6-1.4,1.5
				c0,0-1.5,0.3-1.4-2.2l-0.1-3.4c0,0,0.5-2.4,2.7-2.4l1.6-0.1c0,0,2.2,0.2,2.3-1.8c0,0-0.2-1.4-1.9-1.4l-2.6-0.1
				c0,0-1.3,0.1-1.2-1.8c0,0-0.2-1.6,2.3-1.6H157.5z"/>
		</g>
		<g>
			<path d="M146.4,151.4l5.3,0.1c0,0,1.8-3.4,3.7-3.5c0,0,1.9-0.3,3.5,3.5l7.6-0.2c0,0,3.4-0.1,3.7,2.5l1.1,4.2
				c0,0,1.1,6.9,3.1,10.7c0,0,1.7,1.6,0.3,2.8c0,0-1.7,1.7-3.9-2.1c0,0-2-2.4-4.3-13c0,0,0.2-2.3-1.7-2.1l-4.7,0.1
				c0,0,1.4,3.5,2.5,8.9c0,0,0.8,2.9,1.5,4.5c0,0,0.9,2.3-0.8,3.2c0,0-2.5,0.3-3.2-2.5l-2.4-9.2l-1.1-3.7c0,0-1-2.4-1.8-0.5
				l-0.9,3.8c0,0-1.6,8.5-3.3,10.4c0,0-1.9,2.5-3.2,1.6c0,0-1.9-0.9-0.3-3.8c0,0,1.8-3.8,2.2-6.9l1.1-5.9l-3.9-0.1
				c0,0-0.9-0.8-1.5,1.8l-2.2,7l-1.9,5.3l-0.3,1.9c0,0-0.3,0.4-0.9,0.8c-0.5,0.4-1.6,0.7-2,0.5c-0.4-0.2-1.2-0.6-1.2-0.9
				c-0.1-0.3,0.3-1.9,0.3-2.2c0.1-0.2,0.9-2.3,0.9-2.3l3.2-9.6l0.9-3.5c0,0,1-1.5,2.5-1.7l1.5-0.2L146.4,151.4z"/>
		</g>
		<g>
			<g>
				<g>
					<path d="M157.1,188.3c-0.1,0.1-0.1,0.4,0,0.5c4.4,3.8,9.9,6.3,16.2,7.2c0.2,0,0.4-0.1,0.4-0.3c0-0.2-0.1-0.4-0.3-0.4
						c-6.2-0.9-11.5-3.2-15.8-7C157.5,188.1,157.2,188.1,157.1,188.3z"/>
				</g>
				<g>
					<path d="M152.3,182.3c-0.2,0.1-0.2,0.3-0.2,0.5c0,0.1,0.7,1.4,2.3,3.3c0.1,0.2,0.4,0.2,0.5,0.1c0.2-0.1,0.2-0.4,0-0.5
						c-1.5-1.8-2.2-3.1-2.3-3.2C152.7,182.3,152.5,182.2,152.3,182.3z"/>
				</g>
				<g>
					<path d="M155.9,189.4c-0.1,0.2-0.1,0.4,0,0.5c3.7,3.3,9.9,7.3,17.7,8.1c0.2,0,0.4-0.1,0.4-0.3c0-0.2-0.1-0.4-0.3-0.4
						c-7.6-0.7-13.6-4.7-17.3-7.9C156.2,189.2,156,189.2,155.9,189.4z"/>
				</g>
				<g>
					<path d="M149.8,182.4c-0.2,0.1-0.2,0.3-0.1,0.5c0.1,0.1,1.3,1.9,3.5,4.4c0.2,0.2,0.4,0.2,0.5,0c0.2-0.1,0.2-0.4,0-0.5
						c-2.3-2.4-3.5-4.2-3.5-4.3C150.2,182.4,149.9,182.3,149.8,182.4z"/>
				</g>
				<g>
					<path d="M154.4,190.6c-0.1,0.2-0.1,0.4,0,0.5c5.7,4.9,12.2,7.8,19.5,8.6c0.2,0,0.4-0.1,0.4-0.3c0-0.2-0.1-0.4-0.3-0.4
						c-7.1-0.8-13.5-3.6-19-8.4C154.8,190.4,154.5,190.4,154.4,190.6z"/>
				</g>
				<g>
					<path d="M147.3,182.2c-0.2,0.1-0.2,0.3-0.1,0.5c0.1,0.1,1.6,2.7,4.6,5.9c0.1,0.2,0.4,0.2,0.5,0c0.2-0.1,0.2-0.4,0-0.5
						c-3-3.1-4.5-5.7-4.5-5.7C147.7,182.2,147.5,182.1,147.3,182.2z"/>
				</g>
				<g>
					<path d="M161.2,195.6c-0.4,2.1,0.1,3.2,0.2,3.2c2.1,4.8,7.5,5.2,7.8,5.2c1.6,0.3,2.3-0.8,2.5-1.5c0-0.8-0.2-1.4-0.6-1.8
						c-0.7-0.7-1.8-0.7-1.8-0.7c0,0-4.2-0.3-4.3-2.9c0-0.2-0.2-0.4-0.4-0.4c-0.2,0-0.4,0.2-0.4,0.4c0.1,3.3,4.8,3.6,5,3.6
						c0.1,0,0.8,0,1.3,0.5c0.3,0.3,0.4,0.7,0.4,1.2c0,0.1-0.3,1.1-1.6,0.8c-0.1,0-5.3-0.4-7.2-4.8c0,0-0.4-0.9-0.1-2.8
						c0-0.2-0.1-0.4-0.3-0.4C161.5,195.2,161.3,195.4,161.2,195.6z"/>
				</g>
				<g>
					<path d="M162.3,196.2c0,0.1-0.1,5.9,7.6,6.2c0.2,0,0.4-0.2,0.4-0.4c0-0.2-0.2-0.4-0.4-0.4c-6.9-0.3-6.9-5.2-6.9-5.4
						c0-0.2-0.2-0.4-0.4-0.4C162.5,195.9,162.3,196,162.3,196.2z"/>
				</g>
				<g>
					<path d="M168.3,188.6c-3.7,0.7-5.5,3.4-5.6,3.6c-0.1,0.2-0.1,0.4,0.1,0.5c0.2,0.1,0.4,0.1,0.5-0.1c0,0,1.8-2.6,5.2-3.2
						c2.7-0.5,5.8,0.3,9,2.5c0.1,0.1,2.5,2.1,4.4,1.9c0.6-0.1,1.1-0.3,1.4-0.8c0.1-0.1,0.4-0.6,0.4-1.2c-0.1-0.8-0.8-1.5-1.9-2.2
						c-0.1,0-2-1.4-5,0.8c-0.1,0-0.1,0.1-0.1,0.1C173.7,188.7,170.9,188.1,168.3,188.6z M181.3,190.1c1.2,0.7,1.5,1.3,1.6,1.7
						c0.1,0.4-0.2,0.6-0.2,0.6c-0.2,0.3-0.5,0.5-0.9,0.6c-1.6,0.2-3.8-1.8-3.9-1.8c-0.2-0.2-0.4-0.3-0.7-0.4
						C179.8,189.1,181.2,190.1,181.3,190.1z"/>
				</g>
				<g>
					<path d="M175.3,189.6c-0.2,0.1-0.2,0.4,0,0.5c0.1,0.1,0.4,0.2,0.5,0c1.2-1,4.3-3.2,7.6-0.3c0.1,0.1,1.9,2.1,0.3,4.3
						c0,0.1-1.2,1.7-4.4-0.4c-0.4-0.3-10.2-7.1-14.9-0.9c-0.1,0.2-0.1,0.4,0.1,0.5c0.1,0.1,0.4,0.1,0.5-0.1
						c4.3-5.6,13.8,1.1,13.9,1.1c3.9,2.5,5.4,0.3,5.5,0.2c2-2.7-0.4-5.2-0.4-5.3C180,185.9,176.3,188.7,175.3,189.6z"/>
				</g>
				<g>
					<path d="M173.5,189c-0.2,0.1-0.2,0.4,0,0.5c0.1,0.2,0.4,0.2,0.5,0c6.3-5.6,10.9-0.6,11-0.4c2.8,3.3-0.5,6.3-0.6,6.4
						c-3,2.3-6.4-0.7-6.6-0.8c-7.4-5.5-11.9-1.4-11.9-1.3c-0.1,0.1-0.2,0.4,0,0.5c0.1,0.1,0.4,0.2,0.5,0c0.2-0.2,4.1-3.8,10.9,1.3
						c0,0,4,3.5,7.5,0.8c0.1,0,4-3.5,0.7-7.4C185.5,188.6,180.3,182.9,173.5,189z"/>
				</g>
				<g>
					<path d="M176.4,181.9c-0.5,0.1-0.9,0.4-1.1,0.8c-0.4,0.8,0,1.8,0,1.9c0.6,2.1-0.1,3.1-0.1,3.1c-0.1,0.2-0.1,0.4,0.1,0.5
						c0.2,0.1,0.4,0.1,0.5-0.1c0,0,0.8-1.3,0.2-3.8c-0.1-0.3-0.3-0.9,0-1.3c0.1-0.2,0.3-0.3,0.6-0.4c0,0,0.7-0.1,1.3,0.4
						c0.7,0.5,1.2,1.7,1.3,3.4c0,0.2,0.2,0.4,0.4,0.3c0.2,0,0.4-0.2,0.3-0.4c-0.1-1.9-0.7-3.3-1.6-4
						C177.3,181.6,176.4,181.8,176.4,181.9z"/>
				</g>
				<g>
					<path d="M176.2,182.3c-0.2,0.1-0.2,0.4,0,0.5c0.7,0.8,1.2,3.3,1.3,4.2c0,0.2,0.2,0.3,0.4,0.3c0.2,0,0.3-0.2,0.3-0.4
						c-0.1-0.4-0.5-3.5-1.5-4.6C176.5,182.2,176.3,182.1,176.2,182.3z"/>
				</g>
				<g>
					<path d="M189.2,182.5c-4,1.9-3.1,8.3-3.1,8.6c0,0.2,0.2,0.3,0.4,0.3c0.2,0,0.3-0.2,0.3-0.4c0-0.1-0.8-6.1,2.6-7.8
						c0.4-0.1,1.8-0.3,2.3,0.2c0.1,0.2,0.2,0.4,0.2,0.6c0,0.4-0.1,0.8-0.3,1.1c-0.3,0.3-2,2.4-2.1,6.5c0,0-0.1,3.2-1.9,4.5
						c-1,0.6-2.4,0.6-4.1,0c-0.2-0.1-0.4,0-0.5,0.2c-0.1,0.2,0,0.4,0.2,0.5c2,0.8,3.6,0.8,4.8-0.1c2.2-1.5,2.2-4.9,2.2-5
						c0.1-4.1,1.9-6.1,1.9-6.1l0.1-0.1l0-0.1c0.4-1.1,0.4-2-0.1-2.5C191.5,182,189.5,182.5,189.2,182.5z"/>
				</g>
				<g>
					<path d="M191.9,183c-1.2,0.2-2.2,0.8-2.9,1.7c-0.9,1.3-1.1,2.9-1.1,4.2c0,1,0.1,1.7,0.1,1.9c-0.1,1.4-0.4,2.4-1.1,3
						c-0.6,0.6-1.3,0.5-1.3,0.5c-0.2,0-0.4,0.1-0.4,0.3c0,0.2,0.1,0.4,0.3,0.4c0,0,1,0.1,1.9-0.7c0.8-0.7,1.3-1.9,1.4-3.5l0,0l0,0
						c0,0-0.6-3.5,0.8-5.6c0.5-0.8,1.4-1.2,2.4-1.4c0.2,0,0.3-0.2,0.3-0.4C192.3,183.1,192.1,183,191.9,183z"/>
				</g>
				<g>
					<path d="M173.3,192.4c-0.2,0-0.4,0.2-0.4,0.4c0,0.1,0,3.6,1.2,7.6c0.1,0.1,2.8,5.2,0.4,7.4c-0.2,0.1-0.2,0.4,0,0.5
						c0.1,0.1,0.4,0.1,0.5,0c2.8-2.7-0.1-8-0.2-8.3c-1.1-3.8-1.1-7.2-1.1-7.3C173.7,192.5,173.5,192.4,173.3,192.4z"/>
				</g>
				<g>
					<path d="M174.9,193.5c-0.1,0.5-0.2,1.1-0.2,1.6c0,3.1,1.7,6.5,1.9,6.9c0.3,1.1,0.4,2.1,0.4,3c0,3.3-1.7,4.4-1.8,4.4
						c-0.1,0.1-0.2,0.2-0.2,0.3c0,0.1,0,0.1,0.1,0.2c0.1,0.2,0.3,0.2,0.5,0.1c0.1-0.1,3.2-2,1.7-8.2l0-0.1l0,0c0,0-2.5-4.9-1.7-8
						c0.1-0.2-0.1-0.4-0.2-0.5C175.2,193.1,175,193.3,174.9,193.5z"/>
				</g>
				<g>
					<path d="M176.5,194.6c0,0.1-0.3,2.9,1.2,6.5c0,0.1,2.7,6.2-1.4,9.2c-0.2,0.1-0.2,0.3-0.1,0.5c0.1,0.2,0.4,0.2,0.5,0.1
						c4.6-3.4,1.7-10.1,1.6-10.2c-1.4-3.4-1.1-6.1-1.1-6.2c0-0.2-0.1-0.4-0.3-0.4C176.7,194.3,176.5,194.4,176.5,194.6z"/>
				</g>
				<g>
					<path d="M178.2,201.1c-0.2,0.1-0.3,0.2-0.3,0.4c0.1,0.2,0.2,0.3,0.5,0.3c0.3-0.1,1.3-0.2,1.8,0.2c0.2,0.1,0.4,0.1,0.5-0.1
						c0.1-0.2,0.1-0.4-0.1-0.5C179.7,200.8,178.4,201,178.2,201.1z"/>
				</g>
				<g>
					<path d="M178.5,203.1c0,0.2,0.1,0.4,0.3,0.4l1,0.1c0.2,0,0.4-0.1,0.4-0.3c0-0.2-0.1-0.4-0.3-0.4l-1-0.1
						C178.7,202.8,178.6,202.9,178.5,203.1z"/>
				</g>
				<g>
					<path d="M178.7,205.2c0,0.2,0.1,0.4,0.4,0.4l1,0.1c0.2,0,0.4-0.1,0.4-0.3c0-0.2-0.1-0.4-0.4-0.4l-1-0.1
						C178.9,204.8,178.7,205,178.7,205.2z"/>
				</g>
				<g>
					<path d="M197.1,189.6c-2.6,0.6-4.5,3.9-4.6,4.1l0,0.1l0,0c-0.9,3.4-6.1,4.1-6.1,4.1c-5.4,0.4-6.6,4.3-6.7,4.5
						c-0.9,6.3,4.9,8.3,4.9,8.3c4.9,2.4,6.1,5.4,6.1,5.4c2.8,6,6.7,8.1,6.8,8.2l0,0l0.8,0.4c1.1,0.7,2.1,1,3,0.8
						c1.1-0.2,1.7-1,1.7-1.1c0.4-0.8,0.5-1.4,0.3-2c-0.4-1.1-1.8-1.5-1.9-1.5c-4.2-1.4-7.3-8-7.4-8c-1.9-3.8-6-5.5-6.1-5.6l0,0l0,0
						c-2.5-0.4-3-3-3-3.1c-0.2-0.6-0.2-1.1,0.1-1.5c0.7-1.1,2.8-1.4,2.8-1.4c5.9-0.2,8.3-3.9,8.4-4c1-2.3,2.1-2.8,2.1-2.8
						c1.1-0.4,1.8-1,2.1-1.8c0.4-1.1-0.1-2.1-0.2-2.2l0-0.1l-0.1-0.1C199.1,189.6,198.1,189.4,197.1,189.6z M197.3,190.3
						c0.8-0.2,1.5,0,2.3,0.5c0.1,0.1,0.2,0.4,0.2,0.9c0,0.2,0,0.4-0.1,0.6c-0.2,0.6-0.8,1.1-1.7,1.4c-0.1,0-1.3,0.6-2.4,3.1
						c0,0-2.3,3.5-7.8,3.7c-0.1,0-2.5,0.3-3.4,1.7c-0.4,0.6-0.4,1.3-0.2,2.1c0,0,0.5,3.2,3.6,3.7l-0.1,0c0,0,4,1.7,5.8,5.2
						c0.1,0.3,3.3,6.9,7.8,8.4c0,0,1.1,0.3,1.4,1.1c0.1,0.4,0.1,0.9-0.3,1.3c0,0.1-1.2,1.7-3.7,0l-0.8-0.4c0,0-3.8-2.1-6.5-7.8
						c0-0.1-1.2-3.2-6.5-5.8c-0.3-0.1-5.3-1.9-4.5-7.5c0-0.1,1.1-3.5,6-3.9c0.3,0,5.7-0.8,6.8-4.6l0,0.1
						C193.2,194,195,190.8,197.3,190.3z"/>
				</g>
				<g>
					<path d="M199.4,190c-0.2,0.1-3.9,2.2-5.6,5.7c0,0-1.9,2.9-7,3.4c0,0-5.3,0.2-5.3,5c0,0.1,0.4,3.9,4.6,5.4c0,0,5.2,2.2,6.5,6.3
						l0,0l0,0c0.2,0.3,5,8,9.2,9.2c0.2,0.1,0.4-0.1,0.5-0.3c0,0,0-0.1,0-0.1c0-0.2-0.1-0.3-0.3-0.4c-3.9-1.1-8.7-8.8-8.8-8.9
						c-1.5-4.4-6.7-6.6-7-6.7c-3.8-1.3-4.1-4.6-4.1-4.7c0,0,0-0.1,0-0.1c0-4,4.4-4.1,4.5-4.2c5.5-0.5,7.6-3.6,7.6-3.8
						c1.5-3.3,5.2-5.3,5.3-5.3c0.1-0.1,0.2-0.2,0.2-0.3c0-0.1,0-0.1-0.1-0.2C199.8,190,199.6,190,199.4,190z"/>
				</g>
				<g>
					<path d="M192.8,199.1c-1,3.1-1.1,5.4-0.1,6.7c0.9,1.2,2.3,1.3,2.3,1.3c1.8,0.1,2.6-1.7,2.7-2.7c-0.1-0.6-0.2-1.3-0.7-1.4
						c-0.5-0.1-1,0.5-1.1,0.7c-0.1,0.2-0.4,0.4-0.6,0.4c-0.4,0.1-0.7,0-0.9-0.2c-0.4-0.4-0.2-1.4-0.2-1.8c0.3-0.7,0.7-1.2,1.2-1.4
						c1.2-0.5,2.7,0.2,2.7,0.2c3.4,2.5,1.2,5.9,1.1,6c-2.2,3.8-6.7,1.7-6.9,1.7c-3.8-1.7-2.8-7.8-2.8-7.8c0-0.2-0.1-0.4-0.3-0.4
						c-0.2,0-0.4,0.1-0.4,0.3c-0.1,0.3-1.1,6.7,3.2,8.6c0.1,0,5.4,2.4,7.9-2c0,0,2.7-4.1-1.3-7.1c-0.1-0.1-1.9-0.9-3.4-0.3
						c-0.8,0.3-1.3,1-1.6,1.9c-0.1,0.2-0.4,1.6,0.3,2.4c0.4,0.4,0.9,0.6,1.6,0.4c0.2-0.1,0.8-0.3,1.1-0.7c0.1-0.1,0.2-0.2,0.3-0.3
						c0,0.1,0.1,0.2,0.1,0.6c0,0-0.3,2.1-1.9,1.9c-0.1,0-1.1,0-1.8-1c-0.8-1.2-0.8-3.3,0.2-6.1c0.1-0.2,0-0.4-0.2-0.5
						C193.1,198.8,192.9,198.9,192.8,199.1z"/>
				</g>
				<g>
					<path d="M190.7,200.1c0,0.1-1.7,6.4,2.6,8.2c0.1,0,3.7,1.2,5.5-2.1c0.1-0.2,0.7-2.2-0.2-3.5c-0.5-0.7-1.3-1-2.4-0.9
						c-0.8,0-2.4,0.5-2.5,2.2c0,0.2,0.1,0.4,0.3,0.4c0.2,0,0.4-0.2,0.4-0.4c0.1-1.4,1.7-1.4,1.8-1.4c0.8,0,1.4,0.2,1.8,0.6
						c0.7,1,0.1,2.8,0.1,2.8c-1.5,2.7-4.4,1.7-4.5,1.7c-3.7-1.6-2.2-7.2-2.2-7.3c0.1-0.2-0.1-0.4-0.3-0.5
						C191,199.8,190.8,199.9,190.7,200.1z"/>
				</g>
				<g>
					<path d="M182.7,215.7c0,0.2-0.6,3.5,0.7,5.2c0.5,0.6,1.1,0.9,1.8,0.9c0,0,1.2,0.2,1.9-0.6c0.5-0.6,0.5-1.4,0.2-2.5
						c0-0.1-0.7-1.7,0.7-2.6c0.1,0,1.2-0.8,3,0.9c0.2,0.1,0.4,0.1,0.5,0c0.1-0.1,0.1-0.4,0-0.5c-2.3-2.1-3.9-1-4-0.9
						c-1.5,0.9-1.3,2.6-1,3.4c0.3,0.8,0.3,1.4,0,1.8c-0.4,0.5-1.2,0.3-1.2,0.3c-0.6,0-1-0.2-1.3-0.6c-1.1-1.4-0.6-4.5-0.6-4.6
						c0.9-3.7,4.7-2.9,4.8-2.9c0.2,0.1,0.4-0.1,0.5-0.3c0-0.2-0.1-0.4-0.3-0.4C188.3,212.3,183.8,211.3,182.7,215.7z"/>
				</g>
				<g>
					<path d="M185.1,215.2c0,0-2.1,3.4,1,6c0.2,0.1,0.4,0.1,0.5-0.1c0.1-0.2,0.1-0.4,0-0.5c-2.6-2.2-0.9-4.9-0.8-5.1
						c1-1.7,4.1-1.1,4.1-1.1c0.2,0,0.4-0.1,0.4-0.3c0-0.2-0.1-0.4-0.3-0.4C189.9,213.7,186.4,213,185.1,215.2z"/>
				</g>
				<g>
					<path d="M175,201.5c-0.1,0.1-3.3,1.1-4.2,3.8c-0.6,1.9,0,4.2,1.9,6.7l0,0l0.1,0c0.9,0.7,3.1,2.7,2.9,4.1
						c-0.1,0.6-0.8,1.1-2,1.4c-0.2,0.1-1.4,0.7-1.5,1.7c-0.1,0.5,0.2,1,0.7,1.5c0.2,0.1,3.5,1.8,6-0.5c0.1-0.1,1.6-1.8,1.5-4.3
						c-0.1-1.8-1.1-3.5-3-5.1c-0.1,0-2-1.3-2.2-3.1c-0.1-0.8,0.2-1.6,0.9-2.3c0.2-0.2,0.1-0.4,0-0.5c-0.2-0.2-0.4-0.1-0.5,0
						c-0.8,0.9-1.2,1.9-1,2.9c0.2,2.1,2.3,3.5,2.4,3.6c1.7,1.4,2.6,3,2.7,4.6c0.2,2.2-1.2,3.7-1.3,3.8c-2,1.9-4.9,0.4-5,0.4
						c-0.2-0.2-0.4-0.5-0.4-0.7c0,0,0,0,0-0.1c0.1-0.5,0.7-0.9,1-1.1c1.4-0.3,2.3-1,2.4-1.9c0-0.1,0.1-0.3,0.1-0.4
						c0-1.9-2.7-4.1-3.1-4.4c-1.3-1.7-1.9-3.3-1.9-4.7c0-0.4,0.1-0.9,0.2-1.3c0.8-2.4,3.7-3.3,3.7-3.4c0.2-0.1,0.3-0.2,0.3-0.4
						c0,0,0-0.1,0-0.1C175.4,201.6,175.2,201.4,175,201.5z"/>
				</g>
				<g>
					<path d="M175.4,203.2c-0.1,0-2.3,0.8-3,2.7c-0.4,1.1-0.2,2.3,0.6,3.7c0,0,0.7,1.2,2.4,2.7c0,0,2.6,2.6,2.1,4.9
						c-0.3,1.3-1.4,2.3-3.5,3.1c-0.2,0.1-0.3,0.3-0.2,0.5c0.1,0.2,0.3,0.3,0.5,0.2c2.3-0.8,3.6-2.1,3.9-3.6c0.6-2.8-2.2-5.5-2.3-5.6
						c-1.6-1.4-2.3-2.5-2.3-2.6c-0.7-1.1-0.9-2.2-0.6-3.1c0.5-1.5,2.5-2.2,2.5-2.2c0.2-0.1,0.3-0.3,0.2-0.5
						C175.8,203.2,175.6,203.1,175.4,203.2z"/>
				</g>
				<g>
					<path d="M164.8,204.8c-0.1,0.2-0.1,0.4,0.1,0.5c3.6,2.5,6,2.3,6.1,2.3c0.2,0,0.4-0.2,0.3-0.4c0-0.2-0.2-0.3-0.4-0.3
						c0,0-2.3,0.2-5.6-2.2C165.2,204.5,164.9,204.6,164.8,204.8z"/>
				</g>
				<g>
					<path d="M164.3,206.2c-0.1,0.2,0,0.4,0.2,0.5c0.2,0.1,4,2.2,6.8,2.7c0.2,0,0.4-0.1,0.4-0.3c0-0.2-0.1-0.4-0.3-0.4
						c-2.6-0.4-6.5-2.6-6.5-2.6C164.6,205.9,164.4,206,164.3,206.2z"/>
				</g>
				<g>
					<path d="M163.5,207.6c-0.1,0.2-0.1,0.4,0.1,0.5c0.2,0.1,4.6,2.7,8.7,3.2c0.2,0,0.4-0.1,0.4-0.3c0-0.2-0.1-0.4-0.3-0.4
						c-3.9-0.4-8.3-3-8.3-3.1C163.8,207.4,163.6,207.4,163.5,207.6z"/>
				</g>
			</g>
			<g>
				<g>
					<path d="M157.4,181.8c-0.1,0.1-5.7,10.7-20.6,12.8c-0.2,0-0.3,0.2-0.3,0.4c0,0.2,0.2,0.3,0.4,0.3c15.3-2.1,21.1-13.1,21.2-13.2
						c0.1-0.2,0-0.4-0.2-0.5C157.7,181.6,157.4,181.6,157.4,181.8z"/>
				</g>
				<g>
					<path d="M159.8,181.9c-0.1,0.1-8.8,13.3-23.4,14.7c-0.2,0-0.4,0.2-0.3,0.4c0,0.2,0.2,0.3,0.4,0.3c14.9-1.4,23.8-14.9,23.9-15
						c0.1-0.2,0.1-0.4-0.1-0.5C160.2,181.7,160,181.8,159.8,181.9z"/>
				</g>
				<g>
					<path d="M162.3,181.7c-0.1,0.1-8.6,14.6-26.1,16.6c-0.2,0-0.4,0.2-0.3,0.4c0,0.2,0.2,0.3,0.4,0.3c18-2,26.6-16.8,26.7-16.9
						c0.1-0.2,0-0.4-0.1-0.5C162.6,181.5,162.4,181.6,162.3,181.7z"/>
				</g>
				<g>
					<path d="M148.5,194.6c-0.2,0-0.3,0.2-0.3,0.4c0.3,1.8-0.1,2.7-0.1,2.7c-2,4.4-7.1,4.8-7.2,4.8c-1.4,0.3-1.6-0.8-1.7-0.9
						c0-0.4,0.1-0.8,0.4-1.1c0.5-0.5,1.2-0.5,1.2-0.5c0.2,0,4.9-0.3,5-3.6c0-0.2-0.2-0.4-0.4-0.4c-0.2,0-0.4,0.2-0.4,0.4
						c-0.1,2.6-4.3,2.9-4.3,2.9c0,0-1.1,0-1.8,0.7c-0.4,0.4-0.6,1-0.6,1.7c0.2,0.7,0.9,1.9,2.5,1.5c0.2,0,5.6-0.4,7.7-5.2
						c0,0,0.5-1.1,0.2-3.2C148.9,194.7,148.7,194.6,148.5,194.6z"/>
				</g>
				<g>
					<path d="M147.4,195.2c-0.2,0-0.4,0.2-0.4,0.4c0,0.2-0.1,5.2-7.1,5.6c-0.2,0-0.4,0.2-0.3,0.4c0,0.2,0.2,0.4,0.4,0.4
						c7.7-0.4,7.8-6.3,7.8-6.3C147.8,195.4,147.6,195.2,147.4,195.2z"/>
				</g>
				<g>
					<path d="M133.5,189.8c0-0.1,0-0.1-0.1-0.1c-3.1-2.2-5-0.8-5.1-0.8c-1.1,0.7-1.8,1.4-1.9,2.2c-0.1,0.6,0.2,1,0.4,1.2
						c0.3,0.5,0.8,0.7,1.4,0.8c1.9,0.2,4.4-1.9,4.5-1.9c3.2-2.2,6.2-3,9-2.5c3.4,0.6,5.2,3.2,5.2,3.2c0.1,0.2,0.4,0.2,0.5,0.1
						c0.2-0.1,0.2-0.3,0.1-0.5c-0.1-0.1-1.9-2.8-5.6-3.5C139.3,187.4,136.5,188.1,133.5,189.8z M128.4,192.3c-0.4,0-0.7-0.2-0.9-0.5
						c-0.1,0-0.3-0.3-0.2-0.7c0.1-0.4,0.4-0.9,1.6-1.6c0.1-0.1,1.6-1.1,4.1,0.7c-0.2,0.1-0.4,0.2-0.6,0.4
						C132.2,190.6,129.9,192.5,128.4,192.3z"/>
				</g>
				<g>
					<path d="M126.2,188.6c0,0.1-2.4,2.6-0.4,5.3c0.1,0.1,1.5,2.3,5.4-0.2c0.1-0.1,9.7-6.7,14-1.1c0.1,0.2,0.4,0.2,0.5,0.1
						c0.1-0.1,0.2-0.4,0.1-0.5c-4.7-6.2-14.6,0.7-15,1c-3.2,2-4.3,0.4-4.4,0.4c-1.7-2.2,0.2-4.2,0.3-4.3c3.4-2.8,6.4-0.7,7.6,0.3
						c0.2,0.1,0.4,0.1,0.5,0c0.1-0.2,0.1-0.4,0-0.5C133.8,188,130.2,185.3,126.2,188.6z"/>
				</g>
				<g>
					<path d="M124.6,188c-3.3,3.9,0.6,7.4,0.7,7.5c3.5,2.7,7.5-0.8,7.5-0.8c6.8-5.1,10.8-1.5,10.9-1.3c0.1,0.1,0.4,0.1,0.5,0
						c0.1-0.1,0.1-0.4,0-0.5c-0.1-0.1-4.5-4.3-11.9,1.3c-0.2,0.2-3.6,3.1-6.6,0.8c-0.1-0.1-3.4-3.1-0.6-6.4c0.2-0.2,4.7-5.2,11,0.4
						c0.2,0.1,0.4,0.1,0.5,0c0.1-0.2,0.1-0.4,0-0.5C129.8,182.3,124.7,188,124.6,188z"/>
				</g>
				<g>
					<path d="M131.9,181.7c-0.9,0.7-1.5,2-1.6,4c0,0.2,0.1,0.4,0.3,0.4c0.2,0,0.4-0.1,0.4-0.3c0.1-1.7,0.6-2.8,1.3-3.4
						c0.6-0.5,1.3-0.4,1.3-0.3c0.3,0.1,0.5,0.2,0.6,0.4c0.2,0.4,0.1,1.1,0,1.3c-0.7,2.5,0.1,3.7,0.2,3.8c0.1,0.1,0.3,0.2,0.5,0.1
						c0.2-0.1,0.2-0.3,0.1-0.5c0,0-0.6-1-0.1-3.2c0,0,0.4-1,0-1.8c-0.2-0.4-0.6-0.7-1.1-0.8C133.7,181.2,132.8,181,131.9,181.7z"/>
				</g>
				<g>
					<path d="M133.5,181.7c-0.9,1.1-1.4,4.2-1.5,4.6c0,0.2,0.1,0.4,0.3,0.4c0.2,0,0.4-0.1,0.4-0.3c0.1-0.9,0.6-3.4,1.3-4.2
						c0.1-0.2,0.1-0.4,0-0.5C133.8,181.5,133.6,181.5,133.5,181.7z"/>
				</g>
				<g>
					<path d="M117.8,182.3c-0.5,0.5-0.5,1.4,0,2.5l0,0.1l0,0.1c0,0,1.8,2,1.9,6.1c0,0.1,0.1,3.6,2.2,5.1c1.2,0.8,2.8,0.8,4.8,0.1
						c0.2-0.1,0.3-0.3,0.2-0.5c-0.1-0.2-0.3-0.3-0.5-0.2c-1.7,0.7-3.1,0.7-4.1,0c-1.8-1.2-1.9-4.4-1.9-4.4c-0.1-4.1-1.8-6.2-2-6.6
						c-0.1-0.4-0.3-0.8-0.3-1.1c0-0.2,0.1-0.4,0.2-0.6c0.5-0.5,1.9-0.3,2.3-0.2c3.4,1.6,2.6,7.7,2.6,7.7c0,0.2,0.1,0.4,0.3,0.4
						c0.2,0,0.4-0.1,0.4-0.3c0.1-0.3,0.9-6.6-3-8.5C120.7,181.9,118.7,181.4,117.8,182.3z"/>
				</g>
				<g>
					<path d="M117.8,182.7c0,0.2,0.1,0.4,0.3,0.4c1,0.1,1.8,0.6,2.4,1.4c1.5,2,0.8,5.5,0.8,5.6l0,0l0,0.1c0.1,1.6,0.5,2.8,1.4,3.5
						c0.9,0.8,1.8,0.7,1.9,0.7c0.2,0,0.4-0.2,0.3-0.4c0-0.2-0.2-0.4-0.4-0.3c0,0-0.7,0-1.4-0.5c-0.6-0.6-1-1.6-1.1-3
						c0-0.2,0.1-0.9,0.1-1.9c0-1.3-0.2-3-1.1-4.2c-0.7-1-1.6-1.5-2.9-1.7C118,182.3,117.8,182.5,117.8,182.7z"/>
				</g>
				<g>
					<path d="M136.5,192.1c0,0,0,3.5-1.2,7.4c-0.1,0.2-3,5.5-0.2,8.2c0.2,0.1,0.4,0.1,0.5,0c0.1-0.2,0.1-0.4,0-0.5
						c-2.4-2.3,0.3-7.3,0.4-7.4c1.2-4,1.2-7.5,1.2-7.7c0-0.2-0.2-0.4-0.4-0.4C136.6,191.7,136.5,191.9,136.5,192.1z"/>
				</g>
				<g>
					<path d="M134.7,192.6c-0.2,0.1-0.3,0.3-0.3,0.5c0.9,3.1-1.7,8-1.7,8l0,0.1l0,0c-1.5,6.2,1.6,8.2,1.7,8.2
						c0.2,0.1,0.4,0.1,0.5-0.1c0-0.1,0-0.1,0-0.2c0-0.1-0.1-0.2-0.2-0.3c-0.1,0-1.8-1.1-1.8-4.4c0-0.8,0.1-1.8,0.4-3
						c0.2-0.4,1.9-3.9,1.9-6.9c0-0.6-0.1-1.1-0.2-1.6C135.2,192.6,134.9,192.5,134.7,192.6z"/>
				</g>
				<g>
					<path d="M133.2,193.7c-0.2,0-0.4,0.2-0.3,0.4c0,0,0.3,2.8-1.1,6.2c0,0.1-3,6.7,1.6,10.1c0.2,0.1,0.4,0.1,0.5-0.1
						c0.1-0.2,0.1-0.4-0.1-0.5c-4.1-3-1.4-9.2-1.4-9.2c1.5-3.6,1.2-6.4,1.2-6.5C133.6,193.8,133.4,193.6,133.2,193.7z"/>
				</g>
				<g>
					<path d="M129.6,200.7c-0.2,0.1-0.2,0.3-0.1,0.5c0.1,0.2,0.3,0.2,0.5,0.1c0.5-0.3,1.4-0.2,1.8-0.1c0.2,0,0.4-0.1,0.4-0.3
						c0.1-0.2-0.1-0.4-0.3-0.4C131.8,200.4,130.4,200.1,129.6,200.7z"/>
				</g>
				<g>
					<path d="M131.2,202.2l-1,0.2c-0.2,0-0.4,0.2-0.3,0.4c0,0.2,0.2,0.4,0.4,0.3l1-0.1c0.2,0,0.3-0.2,0.3-0.4
						C131.6,202.3,131.4,202.1,131.2,202.2z"/>
				</g>
				<g>
					<path d="M131.1,204.2l-1,0.1c-0.2,0-0.3,0.2-0.3,0.4c0,0.2,0.2,0.4,0.4,0.4l1-0.1c0.2,0,0.3-0.2,0.3-0.4
						C131.5,204.3,131.3,204.1,131.1,204.2z"/>
				</g>
				<g>
					<path d="M110.1,189.6L110.1,189.6l-0.1,0.1c0,0-0.6,1.1-0.2,2.2c0.3,0.8,1,1.4,2.2,1.8c0,0,1,0.5,2,2.7
						c0.1,0.2,2.6,3.9,8.5,4.1c0,0,2.1,0.3,2.8,1.4c0.3,0.4,0.3,0.9,0.1,1.5c0,0.2-0.5,2.8-3,3.2h0l-0.1,0c-0.2,0.1-4.2,1.8-6.1,5.6
						c0,0.1-3.2,6.7-7.4,8.1c-0.1,0-1.4,0.4-1.9,1.5c-0.2,0.6-0.2,1.3,0.3,2c0,0.1,0.6,0.9,1.7,1.1c0.9,0.2,2-0.1,3-0.8l0.7-0.4l0,0
						c0.2-0.1,4-2.2,6.8-8.2c0-0.1,1.2-3.1,6.1-5.4c0,0,5.8-2,4.9-8.3c-0.1-0.2-1.3-4.1-6.7-4.5c0,0-5.2-0.7-6.1-4.1l0-0.1l0,0
						c-0.1-0.2-2-3.5-4.6-4.1C112,188.7,111,189,110.1,189.6z M112.9,189.7c2.3,0.5,4.1,3.7,4.1,3.7l0-0.1c1,3.9,6.5,4.6,6.8,4.6
						c4.9,0.4,6,3.8,6.1,4c0.8,5.6-4.3,7.4-4.5,7.4c-5.3,2.5-6.5,5.7-6.5,5.8c-2.7,5.7-6.4,7.8-6.5,7.8l-0.8,0.4
						c-2.5,1.7-3.7,0.1-3.7,0c-0.3-0.5-0.4-1-0.2-1.3c0.3-0.8,1.4-1.1,1.4-1.1c4.5-1.5,7.7-8.1,7.8-8.4c1.8-3.5,5.7-5.2,5.8-5.2
						l-0.1,0c3.1-0.5,3.6-3.7,3.6-3.8c0.1-0.3,0.2-0.6,0.2-0.9c0-0.4-0.1-0.8-0.3-1.2c-0.9-1.4-3.3-1.7-3.4-1.7
						c-5.6-0.2-7.9-3.7-7.9-3.7c-1.1-2.5-2.3-3-2.4-3.1c-0.9-0.3-1.5-0.8-1.7-1.4c-0.1-0.2-0.1-0.4-0.1-0.6c0-0.5,0.2-0.8,0.2-0.9
						C111.3,189.7,112,189.5,112.9,189.7z"/>
				</g>
				<g>
					<path d="M110.2,189.6c0,0.1-0.1,0.1-0.1,0.2c0,0.1,0.1,0.3,0.2,0.3c0,0,3.7,2.1,5.2,5.3c0.1,0.2,2.1,3.3,7.6,3.8
						c0.2,0,4.6,0.2,4.6,4.2c0,0,0,0,0,0.1c0,0.1-0.3,3.4-4.1,4.7c-0.2,0.1-5.5,2.3-7,6.7c-0.1,0.1-4.9,7.8-8.8,8.9
						c-0.2,0.1-0.3,0.2-0.3,0.3c0,0.1,0,0.1,0,0.1c0.1,0.2,0.3,0.3,0.5,0.3c4.2-1.2,9-8.9,9.2-9.2l0,0l0-0.1
						c1.4-4.1,6.5-6.3,6.6-6.3c4.2-1.4,4.6-5.3,4.6-5.4c0.1-4.8-5.2-5-5.3-5c-5.1-0.4-7-3.4-7-3.4c-1.6-3.4-5.4-5.5-5.5-5.6
						C110.6,189.3,110.3,189.4,110.2,189.6z"/>
				</g>
				<g>
					<path d="M116.9,198.2c-0.2,0.1-0.3,0.3-0.2,0.5c1,2.8,1,4.9,0.2,6.1c-0.7,1-1.7,1-1.8,1c-1.6,0.1-2-1.9-2-2
						c0-0.4,0.1-0.5,0.1-0.5c0.1,0.1,0.2,0.2,0.3,0.3c0.2,0.4,0.9,0.7,1,0.7c0.8,0.1,1.3,0,1.7-0.4c0.7-0.8,0.3-2.3,0.3-2.4
						c-0.3-1-0.9-1.6-1.6-1.9c-1.5-0.6-3.2,0.2-3.3,0.2c-4.1,3-1.4,7.1-1.4,7.1c2.5,4.3,7.8,1.9,7.9,1.9c4.3-2,3.2-8.4,3.2-8.6
						c0-0.2-0.2-0.3-0.4-0.3c-0.2,0-0.3,0.2-0.3,0.4c0,0.1,1,6.1-2.8,7.8c-0.2,0.1-4.8,2.1-6.9-1.6c-0.1-0.1-0.8-1.2-0.8-2.6
						c0-1.1,0.4-2.4,1.9-3.5c0,0,1.5-0.7,2.7-0.2c0.6,0.2,1,0.7,1.2,1.5c0.1,0.3,0.2,1.3-0.1,1.7c-0.2,0.2-0.5,0.3-1,0.2
						c-0.1-0.1-0.5-0.2-0.6-0.4c-0.1-0.2-0.6-0.8-1.1-0.7c-0.5,0.1-0.6,0.8-0.7,1.3c0.2,1.1,0.9,2.9,2.8,2.7c0,0,1.4,0,2.3-1.3
						c1-1.4,0.9-3.6-0.1-6.7C117.3,198.3,117.1,198.2,116.9,198.2z"/>
				</g>
				<g>
					<path d="M119,199.2c-0.2,0.1-0.3,0.3-0.3,0.5c0,0.1,1.5,5.7-2.2,7.3c-0.1,0-3,1-4.5-1.8l0,0c0,0-0.2-0.7-0.2-1.4
						c0-0.5,0.1-1,0.4-1.4c0.3-0.4,0.9-0.6,1.8-0.6c0.1,0,1.7,0.1,1.8,1.4c0,0.2,0.2,0.4,0.4,0.4c0.2,0,0.4-0.2,0.4-0.4
						c-0.1-1.6-1.7-2.1-2.5-2.2c-1.1,0-1.9,0.3-2.4,0.9c-1,1.3-0.3,3.4-0.3,3.4c1.8,3.4,5.4,2.2,5.5,2.2c4.4-1.9,2.7-8.1,2.7-8.2
						C119.4,199.3,119.2,199.1,119,199.2z"/>
				</g>
				<g>
					<path d="M121.7,211.6c-0.2,0.1-0.3,0.2-0.3,0.5c0.1,0.2,0.2,0.3,0.4,0.3c0.2,0,3.9-0.8,4.8,2.9c0,0,0.6,3.2-0.6,4.5
						c-0.3,0.4-0.7,0.6-1.2,0.6c0,0-0.9,0.1-1.3-0.3c-0.3-0.3-0.3-1,0-1.8c0.3-0.7,0.5-2.4-1-3.4c0,0-1.6-1.2-3.9,0.9
						c-0.1,0.2-0.2,0.4,0,0.5c0.2,0.1,0.4,0.1,0.5,0c1.8-1.7,2.9-0.9,3-0.9c1.4,0.9,0.7,2.5,0.7,2.5c-0.4,1.2-0.3,2,0.2,2.5
						c0.7,0.8,1.9,0.6,1.9,0.6c0.7,0,1.3-0.3,1.7-0.9c1.3-1.6,0.7-5,0.7-5.1C126.3,210.7,121.8,211.6,121.7,211.6z"/>
				</g>
				<g>
					<path d="M120.1,213.1c-0.2,0.1-0.3,0.2-0.3,0.4c0,0.2,0.2,0.3,0.4,0.3c0,0,3.1-0.6,4.1,1.1c0.1,0.1,1.7,2.9-0.8,5.1
						c-0.1,0.1-0.2,0.4,0,0.5c0.1,0.2,0.4,0.2,0.5,0.1c3-2.6,1-6,1-6C123.8,212.4,120.3,213.1,120.1,213.1z"/>
				</g>
				<g>
					<path d="M134.7,201.1c0,0,0,0.1,0,0.1c0,0.2,0.1,0.3,0.3,0.4c0,0,2.9,1,3.7,3.4c0.1,0.4,0.2,0.8,0.2,1.3c0,1.4-0.7,3-1.9,4.7
						c-0.5,0.4-3.1,2.5-3.1,4.4c0,0.1,0,0.2,0,0.4c0.2,0.9,1,1.6,2.5,2c0.2,0.1,0.9,0.6,0.9,1c0,0,0,0,0,0.1c0,0.2-0.2,0.5-0.5,0.7
						c0,0-2.9,1.5-5-0.5c0,0-1.4-1.5-1.2-3.7c0.1-1.6,1-3.1,2.7-4.6c0,0,2.2-1.5,2.4-3.6c0.1-1-0.2-2-1.1-2.9
						c-0.1-0.1-0.4-0.2-0.5,0c-0.2,0.2-0.2,0.4,0,0.5c0.7,0.7,1,1.5,0.9,2.3c-0.2,1.7-2.1,3.1-2.1,3.1c-1.9,1.6-2.9,3.3-3,5.2
						c-0.2,2.5,1.4,4.2,1.4,4.3c2.5,2.3,5.8,0.6,5.9,0.6c0.6-0.5,0.9-1,0.8-1.5c-0.1-1-1.3-1.6-1.4-1.6c-1.2-0.3-1.9-0.8-2-1.4
						c-0.3-1.4,2-3.4,2.9-4.1l0,0l0-0.1c1.9-2.5,2.5-4.7,1.9-6.6c-0.9-2.8-4-3.8-4.2-3.8C135,200.8,134.8,200.9,134.7,201.1z"/>
				</g>
				<g>
					<path d="M134.3,202.8c-0.1,0.2,0,0.4,0.2,0.5c0,0,2,0.7,2.5,2.2c0.3,0.9,0.1,1.9-0.6,3c0,0-0.7,1.2-2.3,2.5
						c-0.1,0.1-2.9,2.9-2.4,5.7c0.3,1.6,1.7,2.8,3.9,3.6c0.2,0.1,0.4,0,0.5-0.2c0.1-0.2,0-0.4-0.2-0.5c-2-0.7-3.2-1.8-3.5-3.1
						c-0.5-2.4,2.1-4.9,2.1-5c1.7-1.5,2.4-2.6,2.4-2.7c0.8-1.3,1.1-2.6,0.6-3.7c-0.7-1.9-2.9-2.6-3-2.7
						C134.6,202.5,134.4,202.6,134.3,202.8z"/>
				</g>
				<g>
					<path d="M149.9,203.3c-3.4,2.3-10.6,3.1-10.7,3.1c-0.2,0-0.4,0.2-0.3,0.4c0,0.2,0.2,0.4,0.4,0.3c0.3,0,7.5-0.8,11-3.3
						c0.1-0.1,0.2-0.4,0.1-0.5C150.3,203.2,150.1,203.2,149.9,203.3z"/>
				</g>
				<g>
					<path d="M153.3,202.8c-0.1,0.1-6.2,5.6-14.4,5.1c-0.2,0-0.4,0.1-0.4,0.4c0,0.2,0.1,0.4,0.4,0.4c8.5,0.5,14.9-5.3,14.9-5.3
						c0.2-0.1,0.2-0.4,0-0.5C153.7,202.7,153.4,202.7,153.3,202.8z"/>
				</g>
				<g>
					<path d="M155.7,203.6c-0.1,0.1-5.8,6-17.9,6.4c-0.2,0-0.4,0.2-0.4,0.4c0,0.2,0.2,0.4,0.4,0.4c12.4-0.4,18.2-6.3,18.4-6.6
						c0.1-0.2,0.1-0.4,0-0.5C156.1,203.4,155.8,203.4,155.7,203.6z"/>
				</g>
			</g>
			<g>
				<g>
					<path d="M148.6,199.2c-0.2,0.1-3.7,2.7-2.5,5.9c0.1,0.2,0.3,0.3,0.5,0.2c0.2-0.1,0.3-0.3,0.2-0.5c-0.9-2.7,2.2-5,2.2-5
						c5.1-2.5,13,3.4,13,3.5c0.2,0.1,0.4,0.1,0.5-0.1c0.1-0.1,0.1-0.4-0.1-0.5C162.1,202.5,154.1,196.6,148.6,199.2z"/>
				</g>
				<g>
					<path d="M151.3,200.4c-3.2,0.4-3.5,3.8-3.5,3.8c0,0.2,0.1,0.4,0.3,0.4c0.2,0,0.4-0.1,0.4-0.3c0-0.1,0.2-2.8,2.8-3.1
						c0,0,4.9-0.3,10.2,4.1c0.2,0.1,0.4,0.1,0.5-0.1c0.1-0.2,0.1-0.4-0.1-0.5C156.5,200.1,151.5,200.4,151.3,200.4z"/>
				</g>
				<g>
					<path d="M149.6,203.4c-0.2,0.1-0.2,0.4-0.1,0.5c0.1,0.2,0.4,0.2,0.5,0.1c3.7-2.8,10.2,2.4,10.3,2.5c0.2,0.1,0.4,0.1,0.5-0.1
						c0.1-0.2,0.1-0.4,0-0.5C160.5,205.7,153.8,200.3,149.6,203.4z"/>
				</g>
			</g>
			<g>
				<g>
					<path d="M159.1,201.1c0,0.2,0.1,0.4,0.3,0.4c2,0.1,2.2,1.2,2.2,1.3l0,0.1l0,0.1c0.2,0.5,0.2,1,0,1.5c-0.8,1.9-4.2,3.2-4.2,3.2
						c-1.5,0.4-3.8,1.7-3.9,1.7c-0.2,0.1-0.2,0.3-0.1,0.5c0.1,0.2,0.3,0.2,0.5,0.1c0,0,2.2-1.3,3.7-1.7c0.2-0.1,3.7-1.4,4.7-3.6
						c0.3-0.7,0.3-1.4,0-2.1l0,0.1c0-0.1-0.2-1.8-2.9-1.9C159.3,200.7,159.1,200.9,159.1,201.1z"/>
				</g>
				<g>
					<path d="M158.3,200.1c-0.2,0-0.3,0.2-0.3,0.4c0.1,0.2,0.3,0.3,0.5,0.3c1.9-0.5,3.4,0.3,3.4,0.3c2.3,1.7,1.2,3.8,1.1,3.9l0,0
						l0,0c-0.6,2.2-5.5,4.1-7.3,4.7c-0.2,0.1-0.3,0.3-0.2,0.4c0.1,0.2,0.3,0.3,0.4,0.3c0.3-0.1,7-2.1,7.8-5.2l0,0.1
						c0,0,1.5-2.8-1.3-4.9C162.1,200.4,160.5,199.5,158.3,200.1z"/>
				</g>
				<g>
					<path d="M164.6,201.7c-0.2,0.1-0.3,0.3-0.2,0.4c0.4,1.6,0.3,3-0.4,4.3c-1.7,2.9-6,3.9-6,3.9c-0.2,0.1-0.3,0.3-0.3,0.4
						c0.1,0.2,0.2,0.3,0.4,0.3c0.2-0.1,4.6-1.1,6.5-4.3c0.8-1.4,1-3.1,0.5-4.9C165,201.8,164.8,201.7,164.6,201.7z"/>
				</g>
				<g>
					<path d="M156.5,199.2c-0.2,0.1-0.2,0.3-0.1,0.5c0.1,0.2,0.3,0.2,0.5,0.2c0,0,2.8-1.4,5.3,0.1c0.2,0.1,0.4,0,0.5-0.1
						c0.1-0.2,0-0.4-0.1-0.5C159.6,197.7,156.6,199.2,156.5,199.2z"/>
				</g>
				<g>
					<path d="M150.3,207.6c-0.2,0.1-0.2,0.3-0.1,0.5c0.1,0.1,1.4,2.3,6.8,2.8c0,0,6.4,2.1,7,6.5c0,0.2,0.2,1.3-1.1,1.7
						c-0.2,0.1-1.4,0.5-2.1-1.2c-0.1-0.1-1.4-4-5.7-4.6c-0.1,0-6.9-0.9-7.7-4.2c-0.1-0.2-0.3-0.3-0.5-0.3c-0.2,0.1-0.3,0.2-0.3,0.4
						c1,3.8,8.1,4.7,8.3,4.8c3.8,0.6,5.1,4,5.1,4.2c1,2.5,3,1.7,3,1.7c1.5-0.4,1.7-1.8,1.6-2.5c-0.6-4.8-7.3-7-7.6-7.1
						c-5-0.5-6.3-2.5-6.3-2.5C150.7,207.5,150.5,207.4,150.3,207.6z"/>
				</g>
				<g>
					<path d="M148.6,208.2c-0.2,0.1-0.3,0.3-0.2,0.5c0.1,0.1,1.5,3.1,6.6,3.4c0,0,7.2,1.5,7.5,7.3c0,0.2,0.2,0.4,0.4,0.3
						c0.2,0,0.4-0.2,0.3-0.4c-0.4-6.4-8.1-8-8.2-8c-4.7-0.3-6-2.9-6-3C149,208.2,148.8,208.1,148.6,208.2z"/>
				</g>
				<g>
					<path d="M149.7,211.9c-0.2,0.1-3.5,2-3.9,4.4c-0.2,0.9,0.1,1.8,0.9,2.6l0,0l0,0c0.1,0,1.1,0.7,2.2,0.4c0.8-0.3,1.4-0.9,1.8-2
						c0,0,1.7-3,3.4-3.7c0.2-0.1,0.3-0.3,0.2-0.5c-0.1-0.2-0.3-0.3-0.5-0.2c-1.9,0.9-3.7,4-3.8,4.1c-0.3,0.9-0.8,1.4-1.3,1.6
						c-0.7,0.2-1.3-0.1-1.5-0.2c-0.5-0.5-0.7-1.1-0.7-1.6c0-0.1,0-0.2,0-0.4c0.4-2.1,3.5-3.9,3.6-3.9c0.1-0.1,0.2-0.2,0.2-0.3
						c0-0.1,0-0.1,0-0.2C150.1,211.8,149.8,211.7,149.7,211.9z"/>
				</g>
				<g>
					<path d="M151.3,212.6c-3.1,2.1-4.4,6-4.5,6.2c-0.1,0.2,0,0.4,0.2,0.5c0.2,0.1,0.4,0,0.5-0.2c0,0,1.3-3.8,4.2-5.8
						c0.2-0.1,0.2-0.4,0.1-0.5C151.7,212.5,151.5,212.4,151.3,212.6z"/>
				</g>
			</g>
		</g>
		<g>
			<path d="M111.6,100.1c-0.3,0.7-0.1,1.4,0.6,1.8c0.4,0.2,42.2,21.8,86.4,0.2c0.6-0.3,0.9-1.1,0.6-1.7c-0.3-0.6-1.1-0.9-1.7-0.6
				c-43,20.9-83.7,0.1-84.1-0.2C112.7,99.2,112,99.5,111.6,100.1z"/>
		</g>
		<g>
			<path d="M111.3,99.6l-0.7,0.3l-9.9,136.5l2.1-1.1c27.8-14.4,54.8-13.8,72.5-10.8c19.3,3.2,32.1,10,32.3,10.1l2.1,1.1l-9.5-135
				l-0.6-0.4C158.7,76.9,111.7,99.3,111.3,99.6z M197.7,102.3c0.1,1.4,8.8,124.7,9.1,129c-4.4-2-15.5-6.7-30.9-9.3
				c-17.7-3-44.5-3.6-72.2,10.1c0.3-4.3,9.3-128.9,9.4-130.4C118.6,99.1,160.7,81.5,197.7,102.3z"/>
		</g>
		<g>
			<path d="M155.7,57.3C139,57.1,137.9,85.8,137.9,87c0,5-2.7,12.4-2.8,12.5c-0.3,0.7,0.1,1.4,0.8,1.7c0.7,0.2,1.4-0.1,1.7-0.8
				c0.1-0.3,2.9-7.9,2.9-13.4c0-0.2,1-27.5,15.3-27.2l0.1,0l0.1,0c0.1,0,2.9-0.5,6,2c3.3,2.6,7.4,9.1,8.2,24.7
				c0,1.1,0.2,10.9,3.5,14.3c0.5,0.5,1.3,0.6,1.8,0.1c0.5-0.5,0.5-1.3,0.1-1.8c-2.2-2.3-2.8-9.9-2.8-12.6
				c-0.7-13.5-3.8-22.5-9.3-26.7C159.9,56.8,156.4,57.2,155.7,57.3z"/>
		</g>
		<g>
			<path d="M152.1,66.7c-5.9,6-5.2,31.4-5.1,34.2c0,0.7,0.6,1.3,1.3,1.2c0.7,0,1.3-0.6,1.2-1.3c-0.3-7.5,0-27.9,4.3-32.3
				c0.6-0.6,1.1-0.7,1.4-0.7c0.1,0,1,0.1,2.1,1.4c2.1,2.5,5.2,9.8,2.7,31c-0.1,0.7,0.4,1.4,1.1,1.4c0.7,0.1,1.4-0.4,1.4-1.1
				c2.5-21.5-0.6-29.9-3.6-33.2c-1.9-2.1-3.7-2.1-3.9-2.1C154.2,65.2,153.1,65.7,152.1,66.7z"/>
		</g>
		<g>
			<path d="M75.1,138.4l-2.9-0.6c0,0-0.6-2.2,0.7-2.6c0,0,6.4,0.6,8.5,3.2c0,0,0.5,0.9,0.5,2.5l0.1,21.7c0,0,0,9.8-1.9,10
				c0,0-1.8,0.4-1.4-6.1l0.9-26.1c0,0,0.4-1.6-2.2-1.8l-1.3,28.6c0,0-0.5,4.5-2.4,4.4c0,0-1.4-0.1-0.9-4.6L75.1,138.4z"/>
		</g>
		<g>
			<path d="M88.1,138.8c0,0-2.4-0.2-2.4,2.2l0.9,27.6c0,0,0.1,3.6-1.6,3.9c0,0-1.8,0.4-1.5-4l-0.1-27.9c0,0-0.4-2.6,2.4-3.6
				c0,0,6.3-3.3,7.3-0.7c0,0,0.2,1.8-2.8,2.1l2.1,30c0,0,0.4,3-1.4,3.2c0,0-1.4,0.5-1.9-4L88.1,138.8z"/>
		</g>
		<g>
			<path d="M224.8,137.6c0,0,2.4-0.4,2.8-2.2c0,0,1.7-2.8,3.2,0c0,0-0.5,1.7,3,2.3c0,0,6.9,1.2,6.8,2.9c0,0,0.3,1.9-4.1,1
				c0,0-5.7-1.3-7.3-2.7l-0.6,0.1c0,0-3.5,2-7,2.5c0,0-3.6,1-4.3-0.7c0,0-0.2-1.4,2.7-2l3.5-0.7L224.8,137.6z"/>
		</g>
		<g>
			<path d="M233.4,143.6h-9.2c-2.3,0-4.2,1.9-4.2,4.2v0.2c0,2.3,1.9,4.2,4.2,4.2h9.2c2.3,0,4.2-1.9,4.2-4.2v-0.2
				C237.6,145.5,235.7,143.6,233.4,143.6z M232.5,150.1H225c-1.1,0-1.9-0.8-1.9-1.9c0-1.1,0.9-1.9,1.9-1.9h7.5
				c1.1,0,1.9,0.9,1.9,1.9C234.4,149.3,233.6,150.1,232.5,150.1z"/>
		</g>
		<g>
			<path d="M227.2,151.6l0.1,19.2c0,0-0.1,2.2,1.5,2.2c0,0,1,0.5,1.3-2.5l0.4-19.1L227.2,151.6z"/>
		</g>
		<g>
			<path d="M222.4,171.5c0,0-0.1,2.3-1.3,2c0,0-1.3,0.2-1-3.2c0,0,1-18,9.1-16.9c0,0,7.5-1.3,8.7,17.5c0,0,0.2,1.7-1.1,1.9
				c0,0-1.6,0.3-1.9-2.4c0,0-1.1-15.1-6.1-15.2c0,0-4.1-2-6.3,15.5L222.4,171.5z"/>
		</g>
	</g>
</g>
<g>
</g>
<g>
</g>
<g>
</g>
<g>
</g>
<g>
</g>
<g>
</g>
</svg>
